<svg xmlns="http://www.w3.org/2000/svg" width="250" height="47.2" viewBox="0 0 250 47.2"><path fill="#F8991D" d="M97.6 36.9c-9.1 6.7-22.4 10.3-33.8 10.3-16 0-30.4-5.9-41.3-15.7-.9-.8-.1-1.8.9-1.2 11.8 6.8 26.3 10.9 41.3 10.9 10.1 0 21.3-2.1 31.5-6.4 1.6-.7 2.9 1 1.4 2.1"/><path fill="#F8991D" d="M101.4 32.6c-1.2-1.5-7.7-.7-10.7-.4-.9.1-1-.7-.2-1.2 5.2-3.7 13.8-2.6 14.8-1.4 1 1.2-.3 9.8-5.2 13.9-.8.6-1.5.3-1.1-.5 1.1-2.8 3.5-8.9 2.4-10.4"/><path fill="#221F1F" d="M90.9 5.2V1.6c0-.5.4-.9.9-.9h16c.5 0 .9.4.9.9v3c0 .5-.4 1.2-1.2 2.2l-8.3 11.8c3.1-.1 6.3.4 9.1 2 .6.4.8.9.8 1.4v3.8c0 .5-.6 1.1-1.2.8-4.9-2.6-11.5-2.9-16.9 0-.6.3-1.1-.3-1.1-.8v-3.6c0-.6 0-1.6.6-2.4L100.2 6h-8.4c-.5 0-.9-.3-.9-.8M32.5 27.4h-4.9c-.5 0-.8-.4-.9-.8V1.7c0-.5.4-.9.9-.9h4.5c.5 0 .8.4.9.8v3.3h.1C34.3 1.8 36.5.3 39.5.3c3 0 4.9 1.5 6.3 4.6C47 1.8 49.7.3 52.5.3c2 0 4.3.8 5.6 2.7 1.5 2.1 1.2 5.1 1.2 7.8v15.7c0 .5-.4.9-.9.9h-4.9c-.5 0-.9-.4-.9-.9V13.3c0-1.1.1-3.7-.1-4.7-.4-1.7-1.5-2.1-2.9-2.1-1.2 0-2.4.8-2.9 2-.5 1.3-.5 3.4-.5 4.8v13.2c0 .5-.4.9-.9.9h-4.9c-.5 0-.9-.4-.9-.9V13.3c0-2.8.5-6.9-3-6.9s-3.4 4-3.4 6.9v13.2c.4.5 0 .9-.6.9m90-27.2c7.2 0 11.1 6.2 11.1 14 0 7.6-4.3 13.6-11.1 13.6-7.1 0-11-6.2-11-13.9 0-7.6 3.9-13.7 11-13.7m0 5.1c-3.6 0-3.8 4.9-3.8 7.9s0 9.5 3.8 9.5 3.9-5.2 3.9-8.4c0-2.1-.1-4.6-.7-6.6-.5-1.7-1.6-2.4-3.2-2.4M143 27.4h-4.8c-.5 0-.9-.4-.9-.9V1.6c0-.5.4-.8.9-.8h4.5c.4 0 .8.3.9.7v3.8h.1c1.4-3.4 3.3-5 6.6-5 2.2 0 4.3.8 5.7 2.9 1.3 2 1.3 5.3 1.3 7.7v15.7c-.1.4-.5.8-.9.8h-4.9c-.4 0-.8-.4-.9-.8V13.1c0-2.7.3-6.7-3-6.7-1.2 0-2.3.8-2.8 2-.7 1.5-.8 3-.8 4.7v13.4c-.1.5-.5.9-1 .9m17.3-2c0-1.3 1.1-2.3 2.4-2.3 1.3 0 2.4 1 2.4 2.3 0 1.2-1.1 2.3-2.4 2.3-1.3 0-2.4-1.1-2.4-2.3m51.6 2c-.5 0-.9-.4-.9-.9V1.6c0-.4.4-.8.9-.8h1.8c.5 0 .9.4.9.8v3.6c1.3-2.9 3.6-5.1 6.6-5.1h.4c3.2 0 5.5 2.3 6.4 5.7 1.3-3.3 3.9-5.7 7.2-5.7h.4c2.4 0 4.6 1.5 5.8 3.8 1.1 2.2 1.1 5.1 1.1 7.6v15c0 .5-.4.9-.9.9h-2.1c-.5 0-.8-.3-.9-.8V11.5c0-1.8.1-3.7-.6-5.3-.7-1.7-2.2-2.7-3.7-2.8-1.7.1-3.3 1.3-4.3 3-1.3 2.1-1.3 4.1-1.3 6.6v13.6c-.1.4-.4.7-.9.8h-2.1c-.5 0-.9-.4-.9-.9v-16c0-1.5-.1-3.2-.8-4.5-.8-1.5-2.2-2.5-3.7-2.6-1.5.1-3.1 1.3-4 2.6-1.2 1.7-1.4 3.9-1.4 6.1v14.3c0 .5-.4.9-.9.9h-2.1m-14.7.6c-6.9 0-10-7-10-14 0-7.4 3.6-13.8 10.6-13.8h.4c6.8 0 10.1 6.8 10.1 13.8 0 7.4-3.7 14-10.7 14h-.4m.5-3.4c2.3-.1 4.1-1.5 5.1-3.8 1-2.1 1.1-4.5 1.1-6.8 0-2.5-.3-5.1-1.5-7.3-1.1-1.9-2.9-3.1-4.8-3.1-2.1.1-4.1 1.5-5 3.8-.9 1.9-1.1 4.5-1.1 6.6 0 2.4.3 5.2 1.3 7.3 1 1.9 2.9 3.2 4.9 3.3m-22.1-.1c3.1-.1 4.7-2.6 5.4-5.8.1-.4.4-.7.9-.7h2c.5 0 .9.4.9.8-.9 5.5-4.3 9.2-9 9.2h-.4c-6.9 0-9.8-6.9-9.8-13.8s3-14 9.9-14h.4c4.8 0 8.2 3.7 8.9 9.1 0 .4-.4.8-.8.8h-2.1c-.5-.1-.7-.4-.8-.9-.5-3-2.3-5.5-5.2-5.6-4.7.2-6 5.9-6 10.3-.1 4.2 1.1 10.4 5.7 10.6m-92.5 2.9zm3.7-4.5c-.9-1.2-1.8-2.2-1.8-4.5v-7.6c0-3.2.2-6.1-2.1-8.3C81 .6 77.9 0 75.5 0c-4.6 0-9.8 1.7-10.9 7.4-.1.6.3.9.7 1l4.7.5c.4 0 .8-.5.8-.9.4-2 2.1-2.9 3.9-2.9 1 0 2.1.4 2.7 1.3.7 1 .6 2.4.6 3.5v.6c-2.8.3-6.5.5-9.2 1.7-3.1 1.3-5.2 4-5.2 7.9 0 5 3.2 7.6 7.3 7.6 3.5 0 5.4-.8 8-3.5.9 1.3 1.2 1.9 2.8 3.2.4.2.8.2 1.1-.1 1-.9 2.7-2.4 3.7-3.2.7-.3.6-.9.3-1.3zm-9.6-2.2c-.8 1.4-2 2.2-3.4 2.2-1.9 0-3-1.4-3-3.5 0-4.1 3.7-4.9 7.2-4.9v1.1c.1 1.9.2 3.4-.8 5.1zM23 22.8c-.9-1.2-1.8-2.2-1.8-4.5v-7.6c0-3.2.2-6.1-2.1-8.3C17.2.6 14.1 0 11.8 0 7.1 0 1.9 1.7.8 7.4c-.1.6.3.9.7 1l4.7.5c.4 0 .8-.5.8-.9.4-2 2.1-2.9 3.9-2.9 1 0 2.1.4 2.7 1.3.7 1 .6 2.4.6 3.5v.6c-2.8.3-6.5.5-9.2 1.7-3 1.3-5.2 4-5.2 7.9 0 5 3.2 7.6 7.3 7.6 3.5 0 5.4-.8 8-3.5.9 1.3 1.2 1.9 2.8 3.2.4.2.8.2 1.1-.1 1-.9 2.7-2.4 3.7-3.2.7-.3.6-.9.3-1.3zm-9.6-2.2c-.8 1.4-2 2.2-3.4 2.2-1.9 0-3-1.4-3-3.5 0-4.1 3.7-4.9 7.2-4.9v1.1c.1 1.9.2 3.4-.8 5.1zM247.4 1c1.2 0 2.1.9 2.1 2.1 0 1.2-1 2.1-2.1 2.1-1.2 0-2.1-1-2.1-2.1s1-2.1 2.1-2.1m.1-.4c-1.4 0-2.6 1.1-2.6 2.5s1.2 2.5 2.6 2.5c1.4 0 2.5-1.1 2.5-2.5S248.8.6 247.5.6m-1 4h.5V3.5h.5c.2 0 .3.1.3.2 0 0 .1.8.1.9h.6c-.1-.1-.1-.5-.1-.8-.1-.4-.1-.6-.5-.6.2-.1.5-.2.5-.7 0-.8-.7-.8-1-.8h-1v2.9m.6-2.4h.5c.2 0 .4 0 .4.4 0 .2-.1.4-.4.4h-.5v-.8"/></svg>