<svg xmlns="http://www.w3.org/2000/svg" viewBox="0 0 162 28"><path fill="#1a171b" d="M14.2.7C6.8.7.7 6.7.7 14.2s6 13.5 13.5 13.5c7.4 0 13.4-6 13.4-13.5C27.7 6.7 21.7.7 14.2.7zm6.1 19.1c0 .5-.1 1.1-.3 1.6-.4 1.3-1.4 2-2.7 2.1h-.4v-1c.2 0 .4 0 .6-.1.9-.2 1.4-.9 1.6-1.7.1-.3.1-.6.1-.9v-6.2c0-1.5-1.1-2.7-2.6-2.8-.6 0-1.2.1-1.7.5.5.7.8 1.4.8 2.2s-.2 1.6-.6 2.3c.4.3.9.4 1.3.4h2v1.1h-1.2c-.5 0-1 0-1.5-.1-.4-.1-.9-.3-1.3-.5-.2-.1-.2-.1-.4 0-2.3 1.6-5.3.4-5.9-2.3-.1-.3-.1-.5-.1-.8V5.3h1.1v8.3c0 1.5 1.1 2.7 2.6 2.8.6 0 1.2-.1 1.7-.5-.5-.7-.8-1.4-.8-2.2s.2-1.6.6-2.3c-.4-.3-.9-.4-1.4-.4h-2V9.8c1 0 1.9-.1 2.9.1.4.1.8.3 1.1.5.1.1.2.1.4 0 2.3-1.7 5.5-.3 6 2.5v.5c.1 2.1.1 4.3.1 6.4z"/><path fill="#1a171b" d="M14.3 14.9c.5-.7.5-2.2-.1-2.8-.6.7-.5 2.1.1 2.8zM41 21c.8 0 1.6-.2 2.3-.6s1.3-1 1.7-1.8.6-1.6.6-2.4c0-.8-.2-1.6-.6-2.4-.4-.8-1-1.4-1.7-1.8-.7-.4-1.5-.6-2.3-.6s-1.6.2-2.4.6c-.8.4-1.3 1-1.7 1.7s-.6 1.5-.6 2.4c0 1.4.5 2.5 1.4 3.5.9.9 2 1.4 3.3 1.4zm-6.1 1.1V5.7h1.5v6.6c.6-.8 1.4-1.4 2.1-1.8.8-.4 1.7-.6 2.6-.6 1.7 0 3.1.6 4.3 1.8s1.8 2.7 1.8 4.4-.6 3.2-1.8 4.4c-1.2 1.2-2.6 1.8-4.3 1.8-1 0-1.8-.2-2.6-.6s-1.5-1-2.1-1.9V22l-1.5.1zm16.9-5.3h6v-1.3h-6v1.3zm16.8-5.4c-.9 0-1.7.2-2.4.6-.7.4-1.3 1-1.7 1.7-.4.7-.6 1.5-.6 2.4 0 1.3.4 2.4 1.3 3.2.9.9 2 1.3 3.4 1.3s2.5-.4 3.4-1.3c.9-.8 1.3-2 1.3-3.3 0-.9-.2-1.7-.6-2.4s-.9-1.3-1.7-1.7c-.8-.3-1.6-.5-2.4-.5zm4.5-1.1h1.5v9.5c0 1.7-.1 2.9-.4 3.7-.4 1.1-1.1 1.9-2.1 2.5s-2.2.9-3.6.9c-1 0-1.9-.1-2.7-.4-.8-.3-1.5-.7-2-1.2s-1-1.2-1.4-2.1h1.7c.4.8 1 1.4 1.7 1.7.7.4 1.6.6 2.7.6 1 0 1.9-.2 2.6-.6s1.2-.9 1.5-1.5.5-1.5.5-2.8V20c-.6.7-1.3 1.3-2.1 1.7-.8.4-1.7.6-2.6.6-1.1 0-2.1-.3-3.1-.8s-1.7-1.3-2.2-2.2c-.5-.9-.8-1.9-.8-3s.3-2.1.8-3.1 1.3-1.7 2.3-2.3 2-.8 3.1-.8c.9 0 1.7.2 2.5.6s1.5 1 2.2 1.8l-.1-2.2zm7.3 11.8h1.5V5.7h-1.5v16.4zm13-10.6c-1.3 0-2.4.5-3.3 1.4s-1.4 2.1-1.4 3.4c0 .9.2 1.7.6 2.4.4.7 1 1.3 1.7 1.7.7.4 1.5.6 2.3.6s1.6-.2 2.3-.6c.7-.4 1.3-1 1.7-1.7.4-.7.6-1.5.6-2.4 0-1.3-.5-2.5-1.4-3.4-.8-1-1.9-1.4-3.1-1.4m0-1.5c1.8 0 3.3.7 4.5 2 1.1 1.2 1.6 2.6 1.6 4.3 0 1.7-.6 3.1-1.7 4.4-1.2 1.2-2.6 1.9-4.4 1.9s-3.3-.6-4.5-1.9c-1.2-1.2-1.7-2.7-1.7-4.4 0-1.6.5-3.1 1.6-4.3 1.2-1.4 2.8-2 4.6-2m10.1.3h1.6l3.6 8.6 3.8-8.6h.3l3.8 8.6 3.7-8.6h1.6l-5.2 11.9h-.3l-3.8-8.5-3.8 8.5h-.3l-5-11.9zm22.6 11.8h1.5V10.3h-1.5v11.8zm.8-16.7c.3 0 .6.1.9.4.2.2.4.5.4.9 0 .3-.1.6-.4.9-.2.2-.5.4-.9.4-.3 0-.6-.1-.9-.4-.2-.2-.4-.5-.4-.9s.1-.6.4-.9c.2-.3.5-.4.9-.4zm6.6 4.9h1.5v2.1c.6-.8 1.3-1.4 2-1.8.7-.4 1.5-.6 2.4-.6s1.7.2 2.4.7c.7.4 1.2 1.1 1.5 1.8.3.8.5 2 .5 3.6v6.1h-1.5v-5.7c0-1.4-.1-2.3-.2-2.7-.2-.8-.5-1.4-1-1.8-.5-.4-1.2-.6-2-.6-.9 0-1.8.3-2.5.9-.7.6-1.2 1.4-1.4 2.3-.1.6-.2 1.7-.2 3.2v4.4h-1.5V10.3zm22.1 1.1c-.9 0-1.7.2-2.4.6-.7.4-1.3 1-1.7 1.7s-.6 1.5-.6 2.4c0 1.3.4 2.4 1.3 3.2.9.9 2 1.3 3.4 1.3s2.5-.4 3.4-1.3c.9-.8 1.3-2 1.3-3.3 0-.9-.2-1.7-.6-2.4-.4-.7-.9-1.3-1.7-1.7-.8-.3-1.6-.5-2.4-.5zm4.5-1.1h1.5v9.5c0 1.7-.1 2.9-.4 3.7-.4 1.1-1.1 1.9-2.1 2.5s-2.2.9-3.6.9c-1 0-1.9-.1-2.7-.4s-1.5-.7-2-1.2-1-1.2-1.4-2.1h1.7c.4.8 1 1.4 1.7 1.7.7.4 1.6.6 2.6.6s1.9-.2 2.6-.6c.7-.4 1.2-.9 1.5-1.5s.5-1.5.5-2.8V20c-.6.7-1.3 1.3-2.1 1.7-.8.4-1.7.6-2.6.6-1.1 0-2.1-.3-3.1-.8s-1.7-1.3-2.2-2.2c-.5-.9-.8-1.9-.8-3s.3-2.1.8-3.1 1.3-1.7 2.3-2.3 2-.8 3.1-.8c.9 0 1.7.2 2.5.6.8.4 1.5 1 2.2 1.8v-2.2z"/></svg>