<svg xmlns="http://www.w3.org/2000/svg" width="202" height="25" viewBox="0 0 202 25"><g fill="#010101"><path d="M13.2 11.7c1.9-.8 3.1-2.7 3.1-5.2 0-3.5-1.8-5.8-7-5.8H0v22.6h9.3c5.7 0 8-2.3 8-6.2 0-2.3-1.2-4.8-4.1-5.4m-11-8.9h7.4c3 0 4.5 1.4 4.5 3.8 0 2.7-1.6 4.4-4.8 4.4H2.2V2.8zm7.4 18.5H2.2V13h7.7c3.7 0 5.3 1.7 5.3 4.2 0 2.8-1.8 4.2-5.6 4.1m12.8 2.1h15.2v-2.1h-13V13h11.8v-2.1H24.6V2.8h13V.7H22.4zm60-9.2c0 5.5-3 7.6-7.3 7.6-3.7 0-7.1-2.1-7.1-7.6V.7h-2.2V14c0 6.5 3.5 9.9 9.3 9.9 6.2 0 9.5-3.3 9.5-9.9V.7h-2.2v13.5zm6.2-11.5h7.7v20.7h2.2V2.7h7.7v-2H88.6zm30.9 10.4L111.8.7h-2.3l8.9 14.6v8.1h2.2v-8.1L129.5.7h-2.3zM135.8.7h-2.2v22.7h14.7v-2.1h-12.5zm35.4 10c-4.4-.6-6-2.4-6-4.4 0-2.5 2.3-4.1 5.3-4.1 2.4 0 4.5.9 6 2.4l1.5-1.5c-2.1-1.8-4.8-2.8-7.6-2.8-4.6 0-7.3 2.8-7.3 6.3 0 2.9 2 5.3 7.2 6 5 .7 6.9 2.3 6.9 5 0 2.4-2.2 4.3-5.8 4.3-3 0-5.8-1.4-7.3-3.2l-1.7 1.5c1.8 2.1 5.1 3.7 8.6 3.7 5.5 0 8.3-2.5 8.3-6.5 0-3.8-3.1-5.9-8.1-6.7m28.6-10v10.4h-13.2V.7h-2.2v22.7h2.2V13.1h13.2v10.3h2.2V.7zm-43 11c-.1 0-.1.1 0 0 0 .1 0 0 0 0m-.1 1.8c0 .1-.1.1-.1.1.1.1.1-.1.1-.1m-.1.5c.1 0 0 .1.1.1h.1v-.3h-.1s-.1.1-.1.2m-3.3 1.3c.1 0 .1-.3 0-.3-.1.1-.1.3 0 .3m3.5 0v-.2h-.1c-.1.1 0 .2.1.2m-.5.9c-.1.1-.1.3 0 .3v.2c.2 0 .2.1.4.1 0-.1.1-.2.1-.3-.2-.1-.2-.3-.5-.3m.2 1.1c-.1 0-.1.1 0 .1v-.1m-.8.8zm.2.5h.2v-.1c.1 0 .1.1.1.1h.1c.1-.2 0-.3 0-.5h-.3v.1c-.1.1-.1.2-.2.2s-.1 0-.1.1c.1.1.1.1.2.1"/><path d="M155.9 18.6c0 .2-.1.2 0 .3.1 0 .1-.2.3-.1 0-.1.1-.1 0-.2-.2 0-.2.1-.3 0m.7.2c-.1.1-.1.1 0 .1v-.1m-.9 0c0 .1 0 0 0 0m-.1.2c-.1 0 0 0 0 0 0 .1 0 0 0 0m.1.3c.1 0 .1-.1.1-.2h-.1v.2m1 .1v-.2c-.2 0 0-.2-.1-.2-.1.2-.1.4.1.4m-.6.4v-.4h-.2v.2s-.1 0-.1.1c-.1.1 0 .2 0 .3v.1s0 .1.1.1 0-.1 0-.2l.2-.2m-.2-.1c-.1 0-.1 0 0 0m-1.5-.2c0 .1-.2.1-.2.2s.1 0 .1.1c-.1 0-.1 0-.1.1h.1c.1-.2.3-.3.1-.4m1.8.2v.1c.1 0 .1-.1.1 0 0 0 0 .1.1.1s.2-.2.1-.3c-.1 0-.2 0-.2.1h-.1zm-2.2.3c.1-.1 0-.1 0-.2h-.1v.1c.1 0 0 .1.1.1m.6-.2c0 .1 0-.1 0 0m-.1.2h.2c.1 0 0-.2 0-.2 0 .2-.1.2-.2.2m.3 0c.1 0 .1 0 0 0m1.8.1h-.2c-.1-.1-.3.1-.4.1 0 .1-.1.2-.1.3v.3h-.1c.2 0 0 .2.1.3.1 0 .1-.1.2-.1 0-.1.1-.2.1-.2v-.2c.1 0 .2-.1.3-.1.1 0 .1.2.1.3h.1v-.4s.1 0 .1-.1c-.2 0-.2-.2-.2-.2"/><path d="M153.8 20.1c.1 0 .1.1.2 0V20c-.1 0-.2.1-.2.1m.5 0s0 .1 0 0c.1.1.1.1.2 0 0 0-.1-.1-.2 0m1.2.1zm-.6.1s-.1-.1-.2 0v.2c.1-.1.1-.2.2-.2m-.5.1c-.1.1 0 .1 0 0m.9 0v.1c.1.1 0-.1 0-.1m0 .2c-.1.1 0 .2.1.2s0-.1-.1-.2c0 .1 0 0 0 0m1.3.4c-.1 0-.2 0 0 0-.1.1 0 0 0 0l.1.1V21c0-.1-.1 0-.1 0m-2.2.3c.1 0 .1 0 .1-.1h.1c-.2-.1-.3-.1-.2.1m1.5-.1l-.2.2c0 .1.1.2 0 .3h.1v.3c.1 0 .1-.1.2-.2 0 0-.1 0-.1-.1h.1s0 .1.1.1c.1-.1 0-.2 0-.4 0-.1-.2-.2-.2-.2m-1.1.1s-.1.2 0 .2c.1-.1 0-.2 0-.2m1.6.1v.8c.1 0 .1-.3.1-.4.1-.1.1-.3-.1-.4m-1.6.6c-.1 0-.1 0 0 0 0 .1 0 0 0 0m1.2.5c-.1 0-.1-.1-.2-.2v-.1h-.1c-.2.1-.1.5-.2.6.1 0 .1.1.1.1h.1c.1 0 .1.1.2 0 0-.1-.1-.2-.1-.2.2-.2.2-.1.2-.2m-1.2-.2c.1 0 .1 0 .1-.1-.1-.1-.1 0-.1 0-.1 0-.1 0 0 .1m1.4.2h.1v.1h-.1z"/><path d="M155.8 23c0-.1-.1-.1-.1-.1v-.1.4h.1V23m-1.2.2h.1v-.1l-.1.1m-.1.2s.1 0 0 0c.2.1.3.1.2 0-.1-.1-.2-.1-.2 0m.1.1c0 .1-.1 0 0 0-.1.1 0 .1 0 0m-1 .4c0 .2.1.1 0 0m.1.3s0 .1 0 0c0 .1 0 0 0 0m3.1-12.1s-.1 0 0 0v-.2c-.1-.1-.2-.2-.3-.2 0-.1-.1-.2-.1-.3-.1 0-.2-.1-.2-.1 0-.2-.2-.2-.2-.3h.2c.1.1.1.2 0 .3.1 0 .1.1.1.2 0 0 0-.2.1-.1.1 0 .1.1.1.2h.2v-.2c0-.1-.1-.1-.1-.1s0-.1.1-.1v-.1c-.1 0 0 .1-.1.1h-.2l-.1-.2v-.2s-.1 0-.1-.1 0-.1.1-.1c0 .1.2.1.1.2.1 0 .1.1.2.1 0 0 .1 0 .1-.1v-.3c0-.1.1-.1.1-.2s-.1-.1-.1-.2c.1 0 .1-.1.1-.2l-.1-.1h-.2c0-.1-.1-.1-.1-.1-.1-.2-.2-.2-.3-.3v-.1c.1 0 .1.1.1 0h.2c.1 0 .1.1.2.2 0 0 0 .1.1 0v-.2c0-.1.1 0 .1-.1-.1-.1-.1-.2-.1-.2-.1 0-.2.1-.2.1-.1-.1-.3-.2-.3-.3 0-.1.1-.1.2-.1s.2.1.4.1c.1-.1.1-.4 0-.5h-.3c0-.2 0-.4.2-.5v.1s0 .1.1.1c.1-.1 0-.3 0-.4h-.1c-.1-.1-.3-.1-.3-.3.1-.1.2 0 .3 0 .1-.1.1-.2.2-.3-.1-.1 0-.3 0-.4h-.2v-.3c.1 0 .1-.1.2-.1.1-.2 0-.4 0-.6 0-.1.1-.3-.1-.3-.1 0-.1.2-.3.1 0 0 0 .1-.1.1 0-.1-.1-.2 0-.2s.1-.1.2-.1v-.5h.2v-.2c0-.1.1-.3 0-.4v-.6c0-.1.1-.2.1-.3 0-.1 0-.2-.1-.3.1-.1 0-.3 0-.4v-.1c0-.1-.1-.2-.1-.3v-.2h-.1c-.1-.1-.1-.3-.3-.3-.1-.2-.3-.3-.4-.6 0 0-.1 0-.1-.1V.5c-.1 0-.1-.1-.1-.2 0 0-.1 0-.1-.1V.1h-.3c-.1 0-.1.1-.2.1h-.1c-.1.1-.2.1-.2.1h-.5c0 .2-.1.3-.2.5 0 .2-.1.2-.1.3 0 0 .1 0 0 .1-.1 0-.1.1-.1.2 0 0 0 .1-.1 0 0 .2-.1.5-.1.7l-.1.1c0 .1.1.1 0 .1-.2.2 0 .5 0 .8v.5c0 .1-.1.2-.1.4 0 0 .1.1 0 .1-.1.1 0 .2 0 .3v1.2c0 .1.1.3.1.4v.3c0 .2-.1.5-.1.7v.1s-.1 0 0 .1v.1c-.2.2 0 .6.1.8 0 .1-.1.1-.1.2s.1.2 0 .3c0 .1.1.1.1.2 0 0-.1 0-.1.1 0 .2.1.2.2.2 0 .1.1 0 0 .1 0 .1-.1 0 0 .1 0 .2-.1.2 0 .4-.1.1-.2.1-.2.3.1.1.1.2 0 .3.1 0 .1.1.1.2 0 .2-.1.2-.1.3 0 .1 0 .3.1.3s0-.2.1-.3c.1 0 .1.1.1.1.1 0 .1 0 .1.1 0 .2.1.5-.1.6h-.3v.2h.1c.1 0 .2-.1.3-.1.1.1 0 .2-.1.2 0 .1-.1.1-.1.2-.1 0-.1.1-.1.1v.3c.1 0 0-.1.1-.1 0 0 .1 0 .1.1s-.1.3-.2.4v.5c.1 0 .1.1.2.2-.1.1-.1.4-.1.6 0 .1.1 0 .1 0v.8h-.1c0 .2.1.2.1.3-.1.2 0 .3 0 .5h-.1c0 .1.1.1 0 .1-.1.1-.2.2-.2.4 0 0 .1 0 .1.1s.1.2.1.2c-.1.1 0 .1 0 .2v.3l.1.1s-.2-.1-.1.1c.1 0 .2 0 .2.1-.1 0 0 .1-.1.2 0 0-.1 0-.1.1v.1s.2-.1.2 0-.1 0-.2 0c0 .1.1.1.1.1v.1s.1 0 .1.1l-.2.2s.1 0 .1.1v.2c.1 0 .1.1.2.1v-.2h.2v.1c-.1 0-.3.2-.2.3.1 0 0 0 .1-.1h.1v-.1c.1 0 0 .1.1.1 0-.1.1-.1.1-.1s-.1 0 0-.1h.1c0 .1.1.1.1.1 0 .1.2.1.1.1s-.2 0-.1.1.1-.1.2-.1c0 .1.1.2.2.1 0-.1-.1 0-.1-.1s.1 0 .1-.1c.1-.2-.1-.5 0-.7v-.1c0-.1-.1 0-.1-.1s.1 0 .1-.1-.1-.1-.1-.2 0-.1.1-.2h.1c0 .1 0 .1.1.1 0-.1-.1 0-.1-.1s-.1-.1-.1-.1V17c0-.1-.1-.1 0-.1s.1-.2.3-.2c.1.1.3.1.2.4h.2c0 .1-.1 0-.1.1v.2c0 .1-.1 0-.1.1.1.1 0 .3.2.3v-.1s-.1 0-.1-.1c.1 0 .1-.1.2-.2.1 0 .2 0 .3-.1v-.2c-.1 0-.1.1-.2 0V17c0-.1.1-.1.1-.1v-.1.2l.1.1s.1-.1.2 0v-.2c-.1 0-.2-.2-.1-.3-.1 0-.1-.1-.2-.1 0 .1 0 .1-.1.1-.1-.1 0-.3 0-.4.1 0 .1-.1.2-.1 0 .1.1.2.2.1V16c0-.1-.1.1-.2 0 0-.1.1-.1.1-.2v-.1c-.1 0-.1 0-.1-.1.1-.1.1-.2.1-.4-.1 0-.1-.1-.1-.2.1 0 .1-.1.1-.1h.3c.1 0 0 .1.1.1.1-.2-.1-.3-.2-.4h-.2c0-.1-.2-.1-.2-.2.1-.1.2-.2.3-.1 0 0 0-.1.1-.1.1.1.2 0 .3 0 0-.1-.1-.3-.1-.4 0 .1-.1.1-.1.1s0 .1-.1.1h-.1c0-.1-.2-.2-.2-.3 0-.1.1 0 .1-.1 0-.2.1-.2.1-.3v-.2h.2c.1-.2.2-.4.4-.5v-.1c0-.1-.1 0-.1-.1v-.1c.1 0 .1-.1.1-.1 0-.1-.1-.2-.1-.3-.1.3 0 .3 0 .2m-3.1.6zm.3 6.1c0-.1.1 0 .2 0-.1.1-.2 0-.2 0m.1-.1c0-.1.1-.1 0-.3.1 0 .2 0 .2.1 0 .2 0 .3-.2.2m.8-.1c0-.1 0 .1 0 0zm.1.3c0 .1-.2.1-.2.3-.1 0 0 0-.1-.1h-.1c0-.1.1-.1.1-.1 0-.1-.1-.2-.1-.2.1 0 0 .1.1.1h.1c.1-.1.1 0 .2 0m1.2-11.5s-.1 0 0 0l-.1-.1h.1v.1zm.1-1.6c.1 0 0 .1 0 .2-.1 0-.1-.1 0-.2m0 .7v.2c-.1 0-.2-.1-.2-.2s-.1 0-.1-.1c.1-.1.2 0 .3.1m-.3.4c.1 0 0 .1 0 0-.1 0 0-.1 0 0m-.3 7.9c-.1.1 0 0 0 0-.1 0 0 0 0 0m-.4-.3h.1c0 .1.2.1.2.2h-.1v-.1h-.1c-.1.1-.1 0-.1-.1 0 .1 0 .1 0 0m.3 1.9zm-.3-.5c.1 0 0 .1 0 .1-.1 0 0-.1 0-.1m-.1-.3v-.3c.1 0 .1.1.1.1 0 .1 0 .2-.1.2m0-.7c.1.1.1.2.1.2-.1 0-.1-.1-.1-.1s-.1 0 0-.1m0 1.3c.1 0 .2.2 0 .1-.1.1-.1 0 0-.1m0 .8c0 .1.1.1 0 .2v.1c-.1 0-.1-.1-.1-.1V17c0-.1.1-.1.1-.2h.2c0-.1-.1-.1-.2-.1.1-.1.2 0 .3 0v.1s-.1 0-.1.1h-.1c-.1 0-.2 0-.1.1m.5.2c-.1 0 0-.1 0 0l-.3-.1c0 .1.1.1.1.2-.1 0-.2-.1-.2-.2.1 0 .1-.1 0-.1s0 .1-.1.1-.1-.1 0-.2c.1 0 .1.1.3 0 .1-.1 0-.2 0-.3h.2c.1.3 0 .4 0 .6m0-.6v-.1h.1c0 .1-.1.1-.1.1m0-2.8v-.2c.1 0 .2.2 0 .2m.2-4.2c.1 0 .1.1 0 0 .2.1.2.1.3.1h.2c0 .1.1.1.1.2h-.4c0-.1-.1-.1-.2-.2h-.1c.1 0 .1 0 .1-.1m.5 2.9v.1h-.1c.1.1.2.2.1.4h-.1c-.1-.1-.1-.2-.2-.3 0-.1.1-.1.1-.1 0-.1 0-.2-.1-.2 0 0 .1-.1 0-.1 0-.1.1 0 .2-.1.1 0 .1.1.1.1l.2.1c-.1 0-.1 0-.2.1m-1.9 8.2c0 .1-.1.1-.1.1.1.1-.1.3.1.3 0-.1 0-.2.1-.2s.2.1.1.2c0 0 .1 0 .1.1 0 0 .1-.1 0-.2h-.1c0-.1-.1-.1-.1-.1h.1v-.1c0-.1 0-.1-.1-.1s0 .1-.1.1v-.1m.1 1c0 .1-.1.1 0 .1v-.1h.1v.1c.1-.1 0-.1 0-.2 0 .1-.1.1-.1.1"/><path d="M154.4 23.4c-.1-.1-.2-.1-.2-.1v-.2s.1 0 .1-.1c-.1 0-.1 0-.1-.1 0 0-.1 0-.1-.1v-.2c0-.1.1-.1.2 0 0 .1.1.1.1.2v.1c0-.1.1-.1.1-.1 0-.1-.1-.1-.1-.2-.1 0-.1-.1-.1-.2h.1c0-.1-.1-.1-.1-.2 0 0-.1 0-.1-.1 0 0 .1-.1 0-.1h-.1v.3c0 .1.1.2.1.3 0 .1-.3.2-.3 0 0-.1.1-.1.1-.2s-.1 0-.1-.1 0-.2.1-.2c0-.1-.1-.1-.1-.1s.1 0 0-.1c-.1 0-.1-.3-.1-.4l-.1-.1c-.1-.1 0-.2-.1-.3.1 0 .1 0 .1-.1-.1-.1-.2-.1-.3-.2v-.3c-.2 0-.2.1-.3.3h-.1v.5c.1 0 .2.1.2.2s-.1.2 0 .3c0 0 .1 0 .1.1 0 .2.1.2.1.3 0 .1-.1.1-.1.2.1.1.1-.1.1 0 0 .2-.1.1-.1.3 0 .1 0 .3.1.3 0 0-.1 0-.1.1s-.1.2 0 .3c.1 0 .3.2.1.3 0 .1.1.2.2.3v.1h-.1c0 .1.1.2.1.2v.4s.1 0 .1.1v.1l.1-.1c-.1 0-.1-.1-.1-.2h.2v-.3c0-.1.1-.1.1-.1v-.1c.1 0 .1 0 .1-.1v-.1c.2-.4.2-.5.3-.5 0 0 .1 0 0 0m-.7-2.8c.1-.1.1.1 0 0M54.1 1.7c0-.1-.1-.2-.1-.4 0-.1-.1 0-.1-.1V1c-.1-.1-.2-.1-.3-.1V.7c-.1-.1-.2-.1-.4-.1 0-.1-.1-.1-.1-.1-.1-.2-.1-.3-.2-.5h-1.1v.1c-.1 0-.2-.1-.4-.1-.1.1-.1.2-.3.2 0 .1 0 .2-.1.2 0 .1-.1.1 0 .2-.1 0-.2.1-.3.1l-.2.2h-.1V1s-.1 0-.1.1c0 .2-.1.2-.2.3 0 .1-.1.2-.1.3h-.1c0 .3-.2.6-.1.8-.1 0-.1.2-.2.2v.1c-.1 0-.1.1-.1.2-.2.1-.3.3-.5.4 0 .2-.1.2-.1.3 0 .2 0 .3.1.4-.1.1 0 .3 0 .4 0 .1-.1.1-.1.2 0 .2 0 .3-.1.4 0 .2 0 .2-.1.3v.1l-.1.1v.2c0 .1 0 .1-.1.2v.2c0 .1-.1.1-.1.2-.1 0-.1.2-.2.2-.1.2-.3.3-.3.6-.1 0-.1.1-.2.1 0 .2-.1.2-.2.3 0 .1.1 0 0 .2-.1 0-.1.1-.2.1 0 0 0 .1-.1.2-.1 0-.1 0-.1.1v.3l-.1.1v.2s-.1 0-.1.1c0 .2 0 .4-.2.5v.2c-.1.1-.2.2-.2.3l-.2.2v.1c-.1 0-.2 0-.2.1 0 0 0 .1-.1.2 0 .1.1.1.1.2l-.1.1c0 .1 0 .2-.1.3v.1l-.1.1c0 .1 0 .2-.1.2v.2c-.1.1-.2.2-.2.3v.4c-.1.1-.1.3-.2.3 0 .1-.1.1-.1.2-.1 0-.1.1-.2.2 0 .1.1 0 .1.1-.1.1-.1.2-.1.3h-.1v.1l-.3.3v.4h-.1v.3c-.1 0-.1.1-.1.1-.1.2-.2.4-.2.7 0 0-.1 0-.1.1 0 .3-.2.4-.2.6-.1 0-.1.1-.1.2h-.1v.1h-.1v.1c-.1.1-.2.1-.2.2.1.1.1.2.2.2 0 .3 0 .6-.2.8 0 .3-.2.6-.3.8-.1 0-.1.1-.2.2 0 .2-.1.3-.1.5-.1.1-.2.2-.2.3 0 .1.1.1 0 .2 0 .1-.2.2-.2.4-.1 0-.2.1-.1.2 0 0-.1 0-.1.1s.1.1.1.2c-.1 0-.1.1-.3.1 0 .1-.2.1-.2.2v.3c.1 0 .2-.1.3-.1 0 .1-.1.2-.1.3-.1 0-.1 0-.1.1l-.1.1c0 .1.1.1.1.2s-.1.1-.2.2-.2.2 0 .2c.1 0 0-.2.1-.1s0 .1-.1.1c0 .1-.1.1-.1.2-.1 0-.2.1-.2.1v.3c0 .1.1.1.1.2v.3c-.2 0-.2.2-.3.3 0 .1.1.1.1.2-.1 0 0 .2-.1.2s0-.1-.1-.1c0 .1 0 .2-.1.2 0 .1.1.1.1.2-.1.1 0 .1 0 .2-.1 0-.1.1-.1.3.1 0 .1-.1.2-.1.2 0 .2-.1.4-.1 0 .2-.1.2-.2.3h-.1c0 .1-.2.1-.2.2v.2c.1 0 .1 0 .1-.1l.2-.2c.1 0 .1-.2.3-.2 0-.1 0-.1.1-.1s.1-.1.2-.1h.1s0-.1.1-.1c0 0 .1 0 .1-.1V24c-.1 0-.1.1-.2.1 0-.1-.1 0-.1-.1s.1-.1.1-.2 0-.2.1-.2c.1.1.2 0 .3 0 0-.1.1-.1.1-.1v-.1c.1-.1.2-.1.2-.2s-.2 0-.2-.1.1-.2.3-.2v-.2c.1-.1.2-.1.2-.1 0-.1-.1-.2-.1-.3.1 0 .1-.1.1-.1 0-.1 0-.2.1-.2s.1.1.2.1c.1-.1.2-.2.2-.3.1 0 .1 0 .1-.1-.1-.1-.2.1-.4 0 0-.1 0-.2-.1-.3.1 0 .2 0 .3-.1 0-.1 0-.3.1-.3h.3c0-.1.1-.1.1-.2s-.1-.1-.1-.1c0-.1-.1-.1-.1-.2.1 0 .1-.1.2-.2.1 0 .1.1.2.2-.1.1 0 .2 0 .2.2 0 .3 0 .3-.2 0-.1-.1-.1-.2-.2 0-.2-.1-.2-.1-.4 0-.1.1-.2.2-.3.1 0 .1.2.2.2s.1-.1.2-.1h.2v-.1s.2 0 .1-.1-.4 0-.4-.2l.2-.2c.1-.1.1-.1.2-.1 0 .1.1.2.2.2 0 0 .1 0 .1-.1.1 0 .1 0 .1-.1 0 0-.1 0-.2-.1 0-.1-.2-.1-.2-.3.1-.1.1-.3.2-.5h.1c.1 0 .2.1.3.1.1-.1.3-.2.3-.4 0 0 0-.1.1 0 0-.1-.2-.2-.2-.3 0-.1.1-.1.1-.2.1 0 .1-.1.2-.1.2 0 .3 0 .4-.1.1-.1.1-.2 0-.3-.1 0-.1-.1-.2-.1 0-.1-.1-.1-.1-.2s.1-.2.2-.2c0-.1.2-.2.2-.2h.2c0-.2.1-.2.1-.4.1-.1.2-.1.3-.2.1 0 .2-.1.3-.2v-.2c.1-.1.4 0 .5-.1v-.2c-.1 0-.3 0-.3-.1s.1-.2.2-.2c0-.1.1-.1.1-.2.1 0 .1-.1.2-.1 0-.1.1-.1.1-.2.1 0 .1-.1.1-.2.1 0 .1-.1.2-.1.1-.3.4-.4.4-.8.2-.1.2-.3.4-.4v-.2h.1V12c.1-.1.2-.2.2-.3.1-.1.2-.1.2-.3h.1v-.3c.1 0 .1-.1.1-.1l.1-.1v-.2h.1c0-.2.1-.2.1-.3-.1 0-.1 0-.1-.1l.3-.3c0-.2 0-.3.1-.3 0-.2.1-.3.1-.5l.1-.1.1-.1c.1 0 0-.1 0-.2.1 0 0-.1.1-.1 0-.2.1-.2.1-.4.1-.1.2-.3.3-.5.1 0 .1-.1.1-.1 0-.3.1-.5.1-.8.1 0 .1-.2.1-.3.2-.1.1-.3.2-.5.1-.1.1-.3.2-.4v-.3c0-.1.1-.1.1-.1v-.1c.1-.1.1-.2.2-.2l7.9 18.4h2.4L54.1 2.2v-.5M41.3 24c-.1 0 0-.2 0-.2.1 0 .1.1 0 .2m10-22.8h-.1c-.1-.1-.2-.2-.2-.4.1-.1.3-.1.4-.1 0 .2.1.3.1.5-.1.1-.2.1-.2 0"/></g></svg>