<svg xmlns="http://www.w3.org/2000/svg" viewBox="0 25 60 10" xml:space="preserve"><style type="text/css">.st0{fill:#003b4c}</style><path class="st0" d="M14.82 31.6c-.19 0-.37-.01-.56-.08v-3.16h.43c.79 0 1.52.52 1.52 1.52 0 1.04-.66 1.72-1.39 1.72m-.08-3.45h-1.5v.15l.35.04c.16.02.16.04.18.5.02.36.03.87.03 1.29 0 .94-.04 1.29-.05 1.36-.03.08-.07.11-.18.13l-.33.04v.15h1.56c1.19 0 1.94-.92 1.94-1.93 0-1.22-.95-1.73-2-1.73m6.72 3.11c-.06.2-.26.3-.43.3l-.95.06v-1.57l.62.02c.28.01.28.1.32.31l.04.24h.23v-1.34h-.23l-.05.26c-.03.21-.03.31-.31.31l-.62.02.01-1.54.65.04c.2.01.39.05.44.3l.07.38h.22v-.9h-2.4v.15l.34.04c.16.01.17.04.19.5.02.33.03.84.03 1.15 0 .36-.01 1.33-.05 1.49-.02.08-.06.11-.17.13l-.33.04v.15h2.56l.15-.86-.19-.03-.14.35zm38.35-.37l-.13.35c-.06.2-.26.3-.43.3l-.95.06v-1.57l.62.02c.28.01.28.1.32.31l.04.24h.23v-1.34h-.23l-.05.26c-.03.21-.03.31-.31.31l-.62.02.01-1.54.65.04c.2.01.39.05.44.3l.07.38h.22v-.9h-2.4v.15l.34.04c.16.01.17.04.19.5.02.33.03.84.03 1.15 0 .36-.01 1.33-.05 1.49-.02.08-.06.11-.17.13l-.33.04v.15h2.56l.14-.86-.19-.03zm-32.84.56l-1.14-1.49c.48-.09.92-.47.92-1 0-.56-.55-.81-1.17-.81h-1.5v.15l.35.04c.13.01.15.06.17.24.02.36.04.76.04 1.42 0 1.02-.03 1.4-.05 1.48s-.09.11-.18.13l-.33.04v.15h1.54v-.15l-.31-.04c-.2-.02-.21-.1-.21-.76v-2.51h.28c.47 0 .89.24.89.65 0 .48-.21.87-1.06.9.43.47 1.02 1.25 1.4 1.91h.8v-.15l-.24-.03c-.1-.02-.12-.06-.2-.17m6.42-.61v-1.75c0-.67.01-.74.21-.77l.33-.04v-.15h-1.02l-1.17 3.09-1.15-3.09h-1v.15l.32.05c.12.02.13.06.13.19-.01.31-.03 1.12-.03 1.47 0 .41-.02.76-.03 1.11-.02.43-.02.48-.18.5l-.34.04v.15h1.37v-.14l-.33-.03c-.2-.02-.22-.06-.22-.77l-.01-2.22c.8 2.06 1.09 2.86 1.19 3.2h.29l1.17-2.99c.02.36.03.87.03 1.26 0 .94-.04 1.31-.05 1.38-.02.08-.07.11-.18.13l-.33.04v.15h1.57v-.15l-.38-.04c-.17-.04-.19-.13-.19-.77m4.24-1.11c-.42-.18-.86-.34-.86-.78 0-.35.25-.67.62-.67.34 0 .61.1.65.37l.06.35h.16l.01-.82c-.14-.04-.5-.11-.82-.11-.57 0-1.14.34-1.14.99 0 .6.45.81.84.97.55.24.94.44.94.85 0 .4-.27.78-.78.78-.52 0-.8-.13-.86-.53l-.05-.36h-.17v.92c.15.08.52.17 1.05.17.76 0 1.29-.53 1.29-1.14-.02-.53-.51-.8-.94-.99m3.06-1.6l-.05.84.21.01.05-.3c.04-.21.05-.3.23-.31l.56-.02.23-.01h.03v.56c.01.44.02.93.02 1.21 0 .41-.01.69-.02.88 0 .51-.06.52-.21.54l-.48.05v.21h1.85v-.21l-.48-.05c-.16-.02-.21-.03-.21-.54-.01-.19-.02-.48-.02-.88 0-.28 0-.76.02-1.21l.03-.56.23.01.56.02c.17.01.2.09.22.26 0 .02.01.03.01.05l.05.3.21-.01-.05-.84h-2.99zm7.03 3.52c-.77 0-1.28-.68-1.28-1.7 0-1.01.52-1.69 1.28-1.69.77 0 1.28.68 1.28 1.69 0 1.02-.52 1.7-1.28 1.7m0-3.59c-1.13 0-1.81.71-1.81 1.89 0 1.19.68 1.9 1.81 1.9s1.81-.71 1.81-1.9c-.01-1.18-.69-1.89-1.81-1.89m7.03 3.37l-1.14-1.49c.48-.09.92-.47.92-1 0-.56-.55-.81-1.17-.81h-1.5v.15l.35.04c.13.01.15.06.17.24.02.36.04.76.04 1.42 0 1.02-.03 1.4-.06 1.48-.02.08-.09.11-.18.13l-.33.04v.15h1.54v-.15l-.31-.04c-.2-.02-.21-.1-.21-.76v-2.51h.28c.47 0 .89.24.89.65 0 .48-.21.87-1.06.9.43.47 1.02 1.25 1.4 1.91h.81v-.15l-.24-.03c-.11-.02-.12-.06-.2-.17M8.1 28.35c-.84 0-1.55.58-1.74 1.36H3.48c-.63 0-1.14-.49-1.22-1.1h2.48a1.794 1.794 0 0 0 1.79-1.79c0-.99-.8-1.79-1.79-1.79-.96 0-1.75.76-1.79 1.72-.6.19-1.07.68-1.21 1.3-.96.03-1.74.84-1.74 1.81 0 .99.8 1.79 1.79 1.79.85 0 1.56-.59 1.74-1.38h2.9c.63 0 1.15.48 1.22 1.09H5.1c-.97.03-1.74.84-1.74 1.81 0 .99.8 1.79 1.79 1.79.97 0 1.76-.78 1.79-1.74.61-.18 1.09-.67 1.24-1.29.19-.01.37-.04.54-.11.68-.25 1.17-.91 1.17-1.68 0-.99-.8-1.79-1.79-1.79zM4.74 25.6a1.23 1.23 0 0 1 .46 2.37c-.21-.73-.88-1.27-1.68-1.29.08-.61.6-1.08 1.22-1.08zm-1.26 1.64c.53 0 .99.34 1.16.82H2.33c.17-.48.62-.82 1.15-.82zm-1.69 3.85c-.68 0-1.23-.55-1.23-1.23 0-.65.5-1.2 1.14-1.25.06.74.58 1.37 1.27 1.58-.14.52-.62.9-1.18.9zm3.36 3.31c-.68 0-1.23-.55-1.23-1.23 0-.53.33-.99.8-1.17.21.72.87 1.25 1.65 1.28-.06.63-.58 1.12-1.22 1.12zm1.29-1.67c-.53 0-.98-.33-1.15-.8h2.3c-.17.46-.62.8-1.15.8zm1.78-1.37a1.795 1.795 0 0 0-1.3-1.58c.15-.5.62-.87 1.18-.87a1.23 1.23 0 0 1 .12 2.45z"/></svg>