<svg id="d8f8346f-6b31-4993-afec-b7e2e4c5a534" data-name="logo naos couleur" xmlns="http://www.w3.org/2000/svg" viewBox="0 0 1272 249.2"><title>naos-2</title><path d="M370.5 55.3a8.8 8.8 0 0 1 8.7-8.6h2.4c4 0 6.4 2 8.9 5.1L484.8 172V54.9a8.6 8.6 0 1 1 17.1 0v140.2a7.9 7.9 0 0 1-8 8.2h-.9c-3.8 0-6.4-2.2-9.1-5.3L387.6 74.8v120.3a8.6 8.6 0 1 1-17.1 0zM774 190.9L710.9 53.3c-2-4.9-5.5-7.8-10.8-7.8h-.9c-5.6 0-8.9 2.9-11.1 7.8l-63 137.8a10 10 0 0 0-1.1 4.7 7.9 7.9 0 0 0 7.9 8c4 0 6.9-2.3 8.5-6l16.2-36.2h85.2l16.2 35.7c1.5 3.6 4.4 6.5 8.6 6.5a8.5 8.5 0 0 0 8.5-8.5 12.9 12.9 0 0 0-1.1-4.4zm-110.5-45.3l35.7-79.4 35.7 79.4zM961.9 44.7c-47.2 0-79.4 37.5-79.4 80.3v.4c0 42.9 31.7 79.9 79 79.9s79.4-37.5 79.4-80.3v-.5c0-42.8-31.7-79.8-79-79.8zm60.9 80.7c0 35.3-25.3 63.7-60.9 63.7s-61.2-28.8-61.2-64.1v-.5c0-35.2 25.3-63.6 60.8-63.6s61.3 28.8 61.3 64.1zm137.3 58.6a7.8 7.8 0 0 1-3.3-6.6 8.5 8.5 0 0 1 8.4-8.7 7.8 7.8 0 0 1 5.4 2c14.6 12.4 29.3 18.4 49 18.4s34.6-11.1 34.6-26.4v-.4c0-14.5-7.7-22.7-40.4-29.5-35.7-7.8-52.1-19.3-52.1-44.9v-.4c0-24.4 21.5-42.4 51-42.4 20.4 0 35.3 5.1 49.5 15.3a9 9 0 0 1 3.8 7.1 8.4 8.4 0 0 1-8.4 8.4 8.1 8.1 0 0 1-5.1-1.5c-13.1-9.5-25.8-13.5-40.2-13.5-20.2 0-33.1 11.1-33.1 25v.5c0 14.6 8 22.8 42.2 30.2s50.6 20.1 50.6 43.9v.4c0 26.7-22.2 44-53.1 44-22.6 0-41.5-7.1-58.8-20.9z" fill="#003d63"/><path d="M124.6 203.6c2.6 3.2 5.5 6.3 8.4 9.3a123.8 123.8 0 0 0 113.5 33.6A123.8 123.8 0 0 0 212.9 133c-3-2.9-6.1-5.8-9.3-8.4a121.6 121.6 0 0 0 9.3-8.4A123.7 123.7 0 0 0 246.5 2.7 124.1 124.1 0 0 0 133 36.3c-2.9 3-5.8 6.1-8.4 9.3a121.6 121.6 0 0 0-8.4-9.3A123.9 123.9 0 0 0 2.7 2.7a123.9 123.9 0 0 0 33.6 113.5 121.6 121.6 0 0 0 9.3 8.4c-3.2 2.6-6.3 5.5-9.3 8.4A124.1 124.1 0 0 0 2.7 246.5a123.7 123.7 0 0 0 113.5-33.6 121.6 121.6 0 0 0 8.4-9.3z" fill="#fd0"/><path d="M203.6 124.6A124 124 0 0 0 150 99.2a122.9 122.9 0 0 0-25.4-53.6 124 124 0 0 0-25.4 53.6 124 124 0 0 0-53.6 25.4A122.9 122.9 0 0 0 99.2 150a124 124 0 0 0 25.4 53.6A122.9 122.9 0 0 0 150 150a122.9 122.9 0 0 0 53.6-25.4z" fill="#febc11"/><path d="M150 99.2a120.8 120.8 0 0 0-25.4-2.4 120.8 120.8 0 0 0-25.4 2.4 120.8 120.8 0 0 0-2.4 25.4 120.8 120.8 0 0 0 2.4 25.4 130.3 130.3 0 0 0 50.8 0 130.3 130.3 0 0 0 0-50.8z" fill="#f7941d"/></svg>