<svg xmlns="http://www.w3.org/2000/svg"><symbol id="icn-email" viewBox="0 0 63.5 57.8"><path d="M63.8 5.6c0-3.1-2.5-5.7-5.7-5.7H5.5C2.4-.1-.2 2.4-.2 5.6v46.6c0 3.1 2.5 5.7 5.7 5.7h52.6c3.1 0 5.7-2.5 5.7-5.7V5.6zm-7.2-1.7L31.8 26.1 7 3.9h49.6zm1.2 50H5.7c-.9 0-1.9-.9-1.9-1.8V6.7l26.6 23.7c.4.3.9.5 1.4.5.5 0 1.1-.2 1.5-.5L59.8 6.7v45.4c0 1-1 1.8-2 1.8z"/></symbol><symbol id="icn-facebook" viewBox="0 0 32.7 59.2"><path d="M22.6 59.2H8.5V34H0V20.2h8.5V15c0-9.1 5.7-15 14.6-15 3.9 0 7 .3 7.8.4l1.7.2v12.5h-7.2c-2.6 0-2.9.7-2.9 2.8v4.3h10L30.8 34h-8.2v25.2zm-10.1-4h6.1V30h8.7l.8-5.8h-9.4v-8.3c0-1.7 0-6.8 6.9-6.8h3.2v-5c-1.5 0-3.5-.1-5.7-.1-6.8 0-10.6 4-10.6 11v9.2H4V30h8.5v25.2z"/></symbol><symbol id="icn-instagram" viewBox="0 0 57.8 57.8"><path d="M42.3 57.8H15.5C7 57.8 0 50.8 0 42.3V15.5C0 7 7 0 15.5 0h26.7c8.6 0 15.5 7 15.5 15.5v26.7c.1 8.6-6.9 15.6-15.4 15.6zM15.5 4C9.2 4 4 9.2 4 15.5v26.7c0 6.4 5.2 11.5 11.5 11.5h26.7c6.4 0 11.5-5.2 11.5-11.5V15.5C53.8 9.2 48.6 4 42.3 4H15.5z"/><path d="M28.9 43.8c-8.2 0-14.9-6.7-14.9-14.9S20.7 14 28.9 14s14.9 6.7 14.9 14.9-6.7 14.9-14.9 14.9zm0-25.8c-6 0-10.9 4.9-10.9 10.9s4.9 10.9 10.9 10.9 10.9-4.9 10.9-10.9S34.9 18 28.9 18z"/><circle cx="44.9" cy="12.5" r="3.5"/></symbol><symbol id="icn-twitter" viewBox="0 0 69.6 57.3"><path d="M22.6 57.3c-7.7 0-15.2-2.2-21.7-6.4-.8-.5-1.1-1.5-.8-2.4.3-.9 1.2-1.4 2.1-1.3 1 .1 2 .2 3 .2 4.1 0 8-.9 11.5-2.8-4.3-1.6-7.8-5.2-9.2-9.7-.2-.7-.1-1.4.4-1.9l.3-.3c-3.4-2.9-5.5-7.2-5.5-11.8v-.2c0-.7.4-1.3 1-1.7.3-.2.7-.3 1.1-.3-1.3-2.3-1.9-4.8-1.9-7.5S3.6 5.8 5 3.4c.3-.6.9-.9 1.6-1 .7 0 1.3.2 1.7.7 6 7.3 14.6 12 23.9 13.1v-.9C32 6.9 38.9 0 47.4 0c3.9 0 7.6 1.5 10.5 4.1 2.4-.6 4.7-1.5 6.9-2.8.7-.4 1.6-.4 2.3.2.6.5.9 1.4.7 2.2-.3 1.1-.8 2.1-1.4 3.1.2-.1.3-.1.5-.2.8-.4 1.8-.1 2.3.5.6.7.6 1.7.1 2.4-1.8 2.6-3.9 4.9-6.3 6.8v.8c0 9.8-3.8 19.7-10.4 27.1-5.3 6-14.8 13.1-30 13.1zM10 51.1c4 1.5 8.3 2.3 12.6 2.3 17.8 0 36.3-13.6 36.3-36.3v-1.7c0-.7.3-1.3.8-1.7.6-.5 1.2-.9 1.8-1.4-.5.1-1 .1-1.4.2-.9.1-1.8-.4-2.1-1.3s.1-1.9.9-2.4c.6-.4 1.2-.8 1.7-1.2-1 .3-1.9.5-2.9.7-.7.1-1.4-.1-1.8-.6C53.6 5.3 50.6 4 47.4 4 41.1 4 36 9.1 36 15.5c0 .9.1 1.8.3 2.6.1.6 0 1.3-.4 1.7-.4.5-1 .7-1.6.7-10.3-.5-20-5-27-12.4-.3 1-.4 2-.4 3.1 0 3.8 1.9 7.4 5.1 9.5.7.5 1.1 1.4.8 2.3-.3.8-1.1 1.4-2 1.4-1.2 0-2.5-.2-3.6-.6 1.1 4.1 4.5 7.4 8.8 8.3.9.2 1.6 1 1.6 1.9 0 .9-.6 1.8-1.5 2-1.1.3-2.2.5-3.3.5 2 3.1 5.5 5.1 9.3 5.1.8 0 1.6.6 1.9 1.4.3.8 0 1.7-.7 2.2-4 3.1-8.5 5.1-13.3 5.9z"/></symbol>
<symbol id="icn-laboratory" viewBox="0 0 50.6 57.3">
	<path d="M42.504,39.673L29.88,16.027V4.021h1.249c0.553,0,1-0.447,1-1V1c0-0.552-0.447-1-1-1H29.88H17.042h-1.144    c-0.553,0-1,0.448-1,1v2.021c0,0.553,0.447,1,1,1h1.144v12.007L5.421,39.57C2.451,44.226,4.519,48,10.042,48h27.999    C43.563,48,45.561,44.271,42.504,39.673z M20.628,17.798l0.413-0.837v-0.933V4.021h4.839v12.007v1.001l0.471,0.883l5.41,10.132    h-16.19L20.628,17.798z"/>
</symbol>
<symbol id="icn-team" viewBox="0 0 60.6 57.3">
	<path xmlns="http://www.w3.org/2000/svg" d="M437.1,233.45c14.8-10.4,24.6-27.7,24.6-47.2c0-31.9-25.8-57.7-57.7-57.7c-31.9,0-57.7,25.8-57.7,57.7    c0,19.5,9.7,36.8,24.6,47.2c-12.7,4.4-24.3,11.2-34.1,20c-13.5-11.5-29.4-20.3-46.8-25.5c21.1-12.8,35.3-36.1,35.3-62.6    c0-40.4-32.7-73.1-73.1-73.1c-40.4,0-73.1,32.8-73.1,73.1c0,26.5,14.1,49.8,35.3,62.6c-17.2,5.2-32.9,13.9-46.3,25.2    c-9.8-8.6-21.2-15.3-33.7-19.6c14.8-10.4,24.6-27.7,24.6-47.2c0-31.9-25.8-57.7-57.7-57.7s-57.7,25.8-57.7,57.7    c0,19.5,9.7,36.8,24.6,47.2C28.5,247.25,0,284.95,0,329.25v6.6c0,0.2,0.2,0.4,0.4,0.4h122.3c-0.7,5.5-1.1,11.2-1.1,16.9v6.8    c0,29.4,23.8,53.2,53.2,53.2h155c29.4,0,53.2-23.8,53.2-53.2v-6.8c0-5.7-0.4-11.4-1.1-16.9H505c0.2,0,0.4-0.2,0.4-0.4v-6.6    C505.2,284.85,476.8,247.15,437.1,233.45z M362.3,186.15c0-23,18.7-41.7,41.7-41.7s41.7,18.7,41.7,41.7    c0,22.7-18.3,41.2-40.9,41.7c-0.3,0-0.5,0-0.8,0s-0.5,0-0.8,0C380.5,227.45,362.3,208.95,362.3,186.15z M194.9,165.35    c0-31.5,25.6-57.1,57.1-57.1s57.1,25.6,57.1,57.1c0,30.4-23.9,55.3-53.8,57c-1.1,0-2.2,0-3.3,0c-1.1,0-2.2,0-3.3,0    C218.8,220.65,194.9,195.75,194.9,165.35z M59.3,186.15c0-23,18.7-41.7,41.7-41.7s41.7,18.7,41.7,41.7c0,22.7-18.3,41.2-40.9,41.7    c-0.3,0-0.5,0-0.8,0s-0.5,0-0.8,0C77.6,227.45,59.3,208.95,59.3,186.15z M125.5,320.15H16.2c4.5-42.6,40.5-76,84.2-76.3    c0.2,0,0.4,0,0.6,0s0.4,0,0.6,0c20.8,0.1,39.8,7.8,54.5,20.3C141.7,279.75,131,298.95,125.5,320.15z M366.8,359.95    c0,20.5-16.7,37.2-37.2,37.2h-155c-20.5,0-37.2-16.7-37.2-37.2v-6.8c0-62.1,49.6-112.9,111.3-114.7c1.1,0.1,2.3,0.1,3.4,0.1    s2.3,0,3.4-0.1c61.7,1.8,111.3,52.6,111.3,114.7V359.95z M378.7,320.15c-5.5-21.1-16-40-30.3-55.6c14.8-12.8,34-20.5,55-20.7    c0.2,0,0.4,0,0.6,0s0.4,0,0.6,0c43.7,0.3,79.7,33.7,84.2,76.3H378.7z"/>
</symbol>
<symbol id="icn-youtube" viewBox="0 0 60.6 57.3">
	<path d="m38.204 28.662-7.927-5.947c-.04-.03-.082-.059-.124-.086-1.232-.788-2.794-.838-4.075-.137-1.282.702-2.078 2.047-2.078 3.508v12c0 1.461.796 2.806 2.078 3.508.6.329 1.261.492 1.922.492.75 0 1.498-.21 2.153-.629.042-.027.084-.056.124-.086l7.927-5.947c1.127-.742 1.796-1.983 1.796-3.338s-.669-2.596-1.796-3.338zm-2.344 3.434-7.86 5.897v-11.986l7.859 5.896c.046.035.093.067.141.097-.048.03-.095.062-.14.096z"/><path d="m46 14h-28c-5.514 0-10 4.486-10 10v16c0 5.514 4.486 10 10 10h28c5.514 0 10-4.486 10-10v-16c0-5.514-4.486-10-10-10zm6 26c0 3.309-2.691 6-6 6h-28c-3.309 0-6-2.691-6-6v-16c0-3.309 2.691-6 6-6h28c3.309 0 6 2.691 6 6z"/>
</symbol>
</svg>