<svg xmlns="http://www.w3.org/2000/svg"><symbol id="icn-adults" viewBox="0 0 50.1 64.3"><path d="M14.7 30h4.4a1.9 1.9 0 0 0 .3-1 2.5 2.5 0 0 0-2.5-2.5 2.6 2.6 0 0 0-2.3 1.6 1 1 0 0 0 .1 1.9zm.1-5H18a.9.9 0 0 0 1-1 1 1 0 0 0-1-1h-3.2a1.1 1.1 0 0 0-1 1 1 1 0 0 0 1 1zm17.6 0h3.3a.9.9 0 0 0 .9-1 1 1 0 0 0-.9-1h-3.3a1.1 1.1 0 0 0-1 1 1 1 0 0 0 1 1zM23 42.7a2.4 2.4 0 0 0 2.3 1.9 2.5 2.5 0 0 0 2.4-1.9 5.3 5.3 0 0 0 1.9-1.3 1 1 0 0 0-.1-1.4 1 1 0 0 0-1.4.1l-.8.6a2.5 2.5 0 0 0-4 0l-.9-.6A1 1 0 0 0 21 40a1 1 0 0 0-.1 1.4 4.4 4.4 0 0 0 2.1 1.3zm1.2-6.4a3 3 0 0 1 1.2-.3l1 .3a.9.9 0 0 0 1.3-.3 1 1 0 0 0-.3-1.4 3.7 3.7 0 0 0-2.1-.6 3.6 3.6 0 0 0-2 .6 1 1 0 0 0-.4 1.4 1 1 0 0 0 1.3.3zM34.5 30h1.3a1 1 0 0 0 .1-1.9 2.6 2.6 0 0 0-2.3-1.6 2.5 2.5 0 0 0-2.5 2.5 1.9 1.9 0 0 0 .3 1z"/><path d="M48.5 54.6c-4.3-4.7-.3-22.4-.7-26.9s-.4-9-3.1-14.5a19.1 19.1 0 0 0-9.7-11c-10.5-4.8-19.4-.3-19.4 0a20.5 20.5 0 0 0-5.9 4.5h-.1l-.9 1.2c-5.3 6.7-6.1 15.5-6.5 19.8s3.7 22.2-.6 26.9 1.4 4.9 4.2 5.1a28 28 0 0 0 4-.1c1 1.8 4.3 4.7 15.2 4.7s15.8-3.2 17.1-4.6h2.2c2.8-.2 8.5-.5 4.2-5.1zM10.1 23.9a16.3 16.3 0 0 1 1-5.5h.1A17.6 17.6 0 0 0 20 9.9v.2a17.8 17.8 0 0 0 11.1 9.1 17.2 17.2 0 0 0 8.7.4 15.4 15.4 0 0 1 .6 4.3v10.2a15.2 15.2 0 1 1-30.4 0zm0 19.3zM25 61.3c-7.5 0-10.6-1.4-11.9-2.4a10.8 10.8 0 0 0 3.5-2.2l.4-.5.6.2a1.2 1.2 0 0 0 1.2-1.2 1.1 1.1 0 0 0-.5-.9 7.3 7.3 0 0 0 .8-3.5 18.4 18.4 0 0 0 6.2 1.1 16.9 16.9 0 0 0 5.6-.9 7.9 7.9 0 0 0 1 3.6 1.3 1.3 0 0 0-.1.6 1.2 1.2 0 0 0 1.1 1.2h.2c.2.1.2.2.4.4a9.4 9.4 0 0 0 4.2 2.4c-2.2 1-6.1 2.1-12.7 2.1z"/><path d="M25.2 56.4a1.1 1.1 0 0 0-1.1 1.1 1.2 1.2 0 0 0 1.1 1.2 1.2 1.2 0 0 0 1.2-1.2 1.1 1.1 0 0 0-1.2-1.1zm2.7-.4a1.2 1.2 0 0 0-1.2 1.1 1.2 1.2 0 0 0 1.2 1.2 1.1 1.1 0 0 0 1.1-1.2 1.1 1.1 0 0 0-1.1-1.1zm-5.3 0a1.1 1.1 0 0 0-1.2 1.1 1.2 1.2 0 0 0 1.2 1.2 1.1 1.1 0 0 0 1.1-1.2 1.1 1.1 0 0 0-1.1-1.1zm-2.7-.8a1.1 1.1 0 0 0-1.1 1.2 1.1 1.1 0 0 0 1.1 1.1 1.1 1.1 0 0 0 1.2-1.1 1.2 1.2 0 0 0-1.2-1.2zm10.7 0a1.1 1.1 0 0 0-1.1 1.2 1.1 1.1 0 0 0 1.1 1.1 1.2 1.2 0 0 0 1.2-1.1 1.2 1.2 0 0 0-1.2-1.2z"/></symbol><symbol id="icn-babies" viewBox="0 0 42.5 54.5"><path d="M30.9 28.2l4.7 4.8a4.2 4.2 0 0 0 3 1.2 3.8 3.8 0 0 0 2.5-.9 3.7 3.7 0 0 0 1.4-2.9 3.8 3.8 0 0 0-1.1-3l-8.3-8.2a10.2 10.2 0 0 0-7.2-3A8.6 8.6 0 0 0 30 8.8a8.8 8.8 0 1 0-17.5 0 8.6 8.6 0 0 0 4.1 7.4 10.5 10.5 0 0 0-7.3 3l-8.1 8.2a4.2 4.2 0 0 0-1.2 3 4.1 4.1 0 0 0 1.5 2.9 3.7 3.7 0 0 0 2.5.9A4.3 4.3 0 0 0 6.9 33l4.7-4.8v7l-4.5 4.5a5.8 5.8 0 0 0 0 8.1l5.5 5.5a4.2 4.2 0 0 0 3 1.2 4.4 4.4 0 0 0 3.2-1.3 4.6 4.6 0 0 0-.2-6.1l-2.5-2.4 3.4-3.1a10.3 10.3 0 0 0 3.5 0l3.4 3.1-2.5 2.5a4.4 4.4 0 0 0-.2 6 4.2 4.2 0 0 0 3.1 1.3 4.3 4.3 0 0 0 3.1-1.2l5.5-5.5a5.8 5.8 0 0 0 0-8.1l-4.5-4.5zm-16-19.4a6.4 6.4 0 0 1 6.3-6.4 6.4 6.4 0 0 1 6.4 6.4 6.4 6.4 0 0 1-6.4 6.3 6.3 6.3 0 0 1-6.3-6.3zM5.2 31.2a1.6 1.6 0 0 1-1.2.6 1.4 1.4 0 0 1-1-.4 1.5 1.5 0 0 1-.6-1.1 1.7 1.7 0 0 1 .5-1.2l8.1-8.2a8.2 8.2 0 0 1 5.6-2.2h9.3a7.8 7.8 0 0 1 5.5 2.2l8.3 8.2a1.6 1.6 0 0 1 .4 1.2 1.3 1.3 0 0 1-.6 1.1 1.4 1.4 0 0 1-.9.4 1.8 1.8 0 0 1-1.3-.6l-6.8-6.8a1.2 1.2 0 0 0-1.3-.2 1.1 1.1 0 0 0-.8 1.1v6.6H14v-6.6a1 1 0 0 0-.7-1.1 1.2 1.2 0 0 0-1.3.2zm8.3 14.3l3.4 3.4a1.9 1.9 0 0 1 .1 2.6 1.9 1.9 0 0 1-2.7.1l-5.5-5.5a3.5 3.5 0 0 1 0-4.7l4.2-4.1 4.2 3.2-3.7 3.3a1.2 1.2 0 0 0-.4.8 1.3 1.3 0 0 0 .4.9zm6.1-6.3L14 35.1v-.8h14.4v.8l-5.5 4.1zm14 2.2a3.3 3.3 0 0 1 0 4.7l-5.5 5.5a1.8 1.8 0 0 1-2.6-.1 1.9 1.9 0 0 1 .1-2.6l3.4-3.4a1.2 1.2 0 0 0 .3-.9.9.9 0 0 0-.4-.8l-3.6-3.3 4.2-3.2z"/></symbol><symbol id="icn-body" viewBox="0 0 37.5 66.8"><path d="M36.9 32.4a8.6 8.6 0 0 0-2.8-3.3 21.1 21.1 0 0 1-.9-3.2c-.1-.7-.3-1.5-.5-2.5a19.8 19.8 0 0 0-1.9-5.5 1.4 1.4 0 0 1-.2-.6 18.1 18.1 0 0 1 0-6.4 5.3 5.3 0 0 0-2.5-5.7 12 12 0 0 0-3.4-1.4l-2.2-.7a4.2 4.2 0 0 1 .2-1.8A1.1 1.1 0 0 0 22 0a1 1 0 0 0-1.2.7c-.2.6-.7 2.5.1 3.6s1.5.9 3.2 1.4 2.3.8 2.8 1.1a3.4 3.4 0 0 1 1.7 3.8 24.5 24.5 0 0 0 .1 7.4l.3.8a19.8 19.8 0 0 1 1.8 5.1c.2.9.3 1.7.5 2.4.6 2.7.8 3.8 1.7 4.4a6.6 6.6 0 0 1 1.6 1.7h-.4a1.4 1.4 0 0 0-.5 1 12.1 12.1 0 0 1 .1 3.2h-.1a1.1 1.1 0 0 1-.8 0 1.9 1.9 0 0 1-.9-1.5 11.6 11.6 0 0 1-.1-2.1 19.1 19.1 0 0 0-.2-2.5 32.6 32.6 0 0 0-2.7-4.6 10.2 10.2 0 0 1-1.6-3.6 17.1 17.1 0 0 1-.6-4.3 28.1 28.1 0 0 1-.1-3.9 1 1 0 0 0-.7-1.2.9.9 0 0 0-1.2.7 14.8 14.8 0 0 0 0 4.2 5.5 5.5 0 0 0-1.1 3.8 23.6 23.6 0 0 0 .3 2.6 7.8 7.8 0 0 1 .3 1.4c.4 2.7.9 7.7.5 9.8 0 .4-.1.7-.1 1.1-.4 2.5-1 6-2.3 8.2a.4.4 0 0 1-.1.3 6.2 6.2 0 0 0 .1 3 15.5 15.5 0 0 1-1.2 11 .3.3 0 0 0-.1.2c-.1.5-.7 3 .1 4.4l.9 1.1h-2c0-.8 0-2.1-.1-3.3a12.2 12.2 0 0 1-.1-2.2 61.9 61.9 0 0 0 .1-7.7 7.6 7.6 0 0 0 .1-1.5c0-.1.1-.3 0-.5a5.5 5.5 0 0 1-.1-.9v-2.4c.1-2-.3-11.2-.3-11.6a.9.9 0 0 0-1-.9.9.9 0 0 0-1 1c0 .4.1 9.6.3 11.5a11.3 11.3 0 0 0 0 2.6 4.5 4.5 0 0 1-.1 1v.2a8.6 8.6 0 0 1 .1 1.6c-.1 2.8-.2 5.5-.2 7.6a10.6 10.6 0 0 1-.2 2.1v.2a11.9 11.9 0 0 0 .1 3.3h-2.3l.9-1.1c.9-1.4.3-3.9.1-4.4a.3.3 0 0 0-.1-.2A15.5 15.5 0 0 1 15.1 48a6.2 6.2 0 0 0 .1-3c0-.1-.1-.2-.1-.3-1.3-2.2-1.8-5.7-2.2-8.2a4.3 4.3 0 0 1-.2-1.1c-.4-2.1.1-7.1.5-9.8a7.8 7.8 0 0 1 .3-1.4 23.6 23.6 0 0 0 .3-2.6 5.5 5.5 0 0 0-1.1-3.8 20 20 0 0 0 .1-4.2 1.1 1.1 0 0 0-1.3-.7 1 1 0 0 0-.7 1.2 18.8 18.8 0 0 1-.1 4 19 19 0 0 1-.5 4.3A16 16 0 0 1 8.6 26a39.8 39.8 0 0 0-2.8 4.8c0 .3-.1 1-.1 2.5s-.1 1.7-.2 2.1a1.9 1.9 0 0 1-.9 1.5.9.9 0 0 1-.7 0h-.2a12.1 12.1 0 0 1 .1-3.2 1.1 1.1 0 0 0-.5-1H3A10.1 10.1 0 0 1 4.5 31c.9-.6 1.2-1.7 1.8-4.4.1-.7.3-1.5.5-2.4a17.4 17.4 0 0 1 1.7-5.1 4.1 4.1 0 0 0 .3-.8 19.3 19.3 0 0 0 .1-7.4 3.4 3.4 0 0 1 1.7-3.8c.5-.3 1.8-.7 2.8-1.1s2.7-.8 3.2-1.4.3-3 .1-3.6a1 1 0 0 0-1.2-1 1.2 1.2 0 0 0-.7 1.3A3.9 3.9 0 0 1 15 3a8.7 8.7 0 0 1-2.2.8 12 12 0 0 0-3.4 1.4A5.4 5.4 0 0 0 7 10.9a19.9 19.9 0 0 1-.1 6.4 1.4 1.4 0 0 1-.2.6 24 24 0 0 0-1.9 5.5c-.2 1-.4 1.8-.5 2.5s-.6 3-.9 3.2a8.6 8.6 0 0 0-2.8 3.3c-.4.8-.9 1.6-.3 2.3s.7.5 1.4.3a5 5 0 0 0 .2 2.5 2.2 2.2 0 0 0 1.3 1.2l.9.2a3.2 3.2 0 0 0 1.4-.3 3.9 3.9 0 0 0 2-3.1c.1-.4.1-1.3.2-2.2a10.4 10.4 0 0 1 .1-2.1 23.6 23.6 0 0 1 2.4-4.1 18 18 0 0 0 1.1-2c0 .1-1.1 7.3-.6 10.5.1.3.1.7.2 1 .4 2.6 1 6.2 2.4 8.7a4.7 4.7 0 0 1 0 1.7 17.7 17.7 0 0 0 1.2 12.8 4.2 4.2 0 0 1 .1 2.7 4.5 4.5 0 0 1-1 .9c-.5.4-.9.7-1 1.3a1.7 1.7 0 0 0 .3 1c.8.9 3.8 1 3.8 1a7.5 7.5 0 0 0 2.2-.2 7.2 7.2 0 0 0 1.9.2s3-.1 3.8-1a1.7 1.7 0 0 0 .3-1c0-.6-.5-.9-1-1.3a4.5 4.5 0 0 1-1-.9 6.3 6.3 0 0 1 .1-2.7A17.7 17.7 0 0 0 24.2 47a5.4 5.4 0 0 1 .1-1.7c1.4-2.5 1.9-6.1 2.3-8.7.1-.3.1-.7.2-1 .4-2.7-.2-8.5-.5-10.5h-.1a18 18 0 0 0 1.1 2 46.1 46.1 0 0 1 2.5 4 21.3 21.3 0 0 0 .1 2.2 12.8 12.8 0 0 0 .1 2.2 3.9 3.9 0 0 0 2 3.1 3.5 3.5 0 0 0 1.4.3l1-.2a2.5 2.5 0 0 0 1.3-1.2 9.4 9.4 0 0 0 .2-2.5 1.2 1.2 0 0 0 1.4-.3c.5-.7.1-1.5-.4-2.3z"/></symbol><symbol id="icn-eyes" viewBox="0 0 54.7 37.1"><path d="M30.8 28.8a3.3 3.3 0 0 1-3.3-3.3 3.3 3.3 0 0 1 2-3 8.7 8.7 0 0 0-2.5-.4 7.5 7.5 0 1 0 7.5 7.5 9.4 9.4 0 0 0-.5-3 3.4 3.4 0 0 1-3.2 2.2zm-3.6-18.1a1.5 1.5 0 0 0 1.5-1.5V1.5a1.5 1.5 0 0 0-3 0v7.7a1.5 1.5 0 0 0 1.5 1.5zm9.8 2.1l.7.2a1.4 1.4 0 0 0 1.3-.9l3.5-6.9a1.7 1.7 0 0 0-.7-2.1 1.5 1.5 0 0 0-2.1.7l-3.5 6.9a1.7 1.7 0 0 0 .8 2.1zm-21.8-.7a1.7 1.7 0 0 0 1.5.9l.6-.2a1.4 1.4 0 0 0 .7-2.1l-3.3-6.9a1.7 1.7 0 0 0-2.2-.7 1.6 1.6 0 0 0-.7 2.1zm39-1.3a1.6 1.6 0 0 0-2.2 0l-5.3 5.4a1.4 1.4 0 0 0 0 2.2 1.4 1.4 0 0 0 1.1.5 1.4 1.4 0 0 0 1-.5l5.4-5.4a1.6 1.6 0 0 0 0-2.2zM8 18a1.4 1.4 0 0 0 0-2.2l-5.3-5.4a1.6 1.6 0 0 0-2.2 0 1.4 1.4 0 0 0 0 2.2L5.8 18a1.8 1.8 0 0 0 1.2.5 1.4 1.4 0 0 0 1-.5z"/><path d="M27.2 13.9c-8.4 0-16.2 3.9-20.4 10.2a1.4 1.4 0 0 0 .4 2.1 1.4 1.4 0 0 0 2-.4A21.9 21.9 0 0 1 27 17c7.3 0 14.2 3.4 17.8 8.8a2.1 2.1 0 0 0 1.4.7 1.1 1.1 0 0 0 .8-.3 1.4 1.4 0 0 0 .5-2.1c-4.2-6.3-12-10.2-20.3-10.2z"/></symbol><symbol id="icn-face" viewBox="0 0 54.6 75"><path d="M5.5 55a1.6 1.6 0 0 1-1.4.8 1.5 1.5 0 0 1-1.4-1.5v-1.6a4.3 4.3 0 0 1-1.2-1.1 7.2 7.2 0 0 1 0-8.8 4.2 4.2 0 0 1 2.1-1.6 21.9 21.9 0 0 1-1.4-7.7c0-8.7 5.2-16.2 13-20.1v-1.3a12.1 12.1 0 1 1 24.1 0v1.3c7.8 3.9 13 11.4 13 20.1a21.4 21.4 0 0 1-1.4 7.6 6.6 6.6 0 0 1 2.3 1.7 7.6 7.6 0 0 1 0 8.8l-1.3 1.2v1.6a1.5 1.5 0 0 1-1.4 1.5 1.3 1.3 0 0 1-1.4-1 21.9 21.9 0 0 1-43.6.1zm40.6-2.1V40.2a18.9 18.9 0 0 0-.8-5.3 21.7 21.7 0 0 1-10.7-.5 22.3 22.3 0 0 1-13.7-11.3l-.2-.2A21.7 21.7 0 0 1 9.8 33.3h-.1a19.1 19.1 0 0 0-1.3 6.8v12.8a18.9 18.9 0 1 0 37.7 0zM24.4 63.6a6.2 6.2 0 0 1-2.6-1.7 1.2 1.2 0 1 1 1.8-1.6 3.6 3.6 0 0 0 1.2.8 3 3 0 0 1 2.5-1.3 3.3 3.3 0 0 1 2.5 1.2l1-.7a1.2 1.2 0 1 1 1.8 1.6 6.3 6.3 0 0 1-2.3 1.6 3.2 3.2 0 0 1-3 2.4 3 3 0 0 1-2.9-2.3zm-.1-8.4a1.2 1.2 0 0 1 .4-1.7 5.9 5.9 0 0 1 2.6-.7 4.8 4.8 0 0 1 2.6.7 1.2 1.2 0 0 1 .4 1.7 1.2 1.2 0 0 1-1.7.4 2.4 2.4 0 0 0-1.3-.4 3 3 0 0 0-1.4.4 1.1 1.1 0 0 1-1.6-.4zm25.1-4.7h.1a1.9 1.9 0 0 0 1.3-.8 4.3 4.3 0 0 0 0-5 2.8 2.8 0 0 0-1.2-.8c-.1.1-.1.3-.2.4zm-44.2 0v-6l-.3-.6a1.9 1.9 0 0 0-1 .8 4.3 4.3 0 0 0 0 5 1.7 1.7 0 0 0 1.3.8zm33.4-2.7h-3.8a2.8 2.8 0 0 1-.3-1.3 3.1 3.1 0 0 1 3-3 3.2 3.2 0 0 1 2.9 1.9 1.2 1.2 0 0 1 .9 1.2 1.2 1.2 0 0 1-1 1.2h-1.7zm-24.5 0a1.2 1.2 0 0 1-1-1.2 1.2 1.2 0 0 1 .9-1.2 3.2 3.2 0 0 1 2.9-1.9 3.1 3.1 0 0 1 3 3 2.8 2.8 0 0 1-.3 1.3h-5.5zm20.8-7.4a1.2 1.2 0 0 1 1.2-1.2h4a1.2 1.2 0 0 1 0 2.4h-4a1.2 1.2 0 0 1-1.2-1.2zm-21.9 0a1.2 1.2 0 0 1 1.2-1.2h4a1.2 1.2 0 1 1 0 2.4h-4a1.2 1.2 0 0 1-1.2-1.2z"/></symbol><symbol id="icn-family" viewBox="0 0 57.8 63.4"><path d="M15.2 17.3a7.7 7.7 0 1 0-7.6-7.6 7.6 7.6 0 0 0 7.6 7.6zm0-11.8a4.2 4.2 0 0 1 4.2 4.2 4.1 4.1 0 0 1-4.2 4.1 4.1 4.1 0 0 1-4.1-4.1 4.1 4.1 0 0 1 4.1-4.2zM11 43.3a1.8 1.8 0 0 0-1.8 1.8v15.7a1.8 1.8 0 0 0 1.8 1.7 1.7 1.7 0 0 0 1.7-1.7V45.1a1.7 1.7 0 0 0-1.7-1.8zm8.5 0a1.8 1.8 0 0 0-1.8 1.8v15.7a1.8 1.8 0 0 0 1.8 1.7 1.8 1.8 0 0 0 1.7-1.7V45.1a1.8 1.8 0 0 0-1.7-1.8zm26.4-28a7.7 7.7 0 0 0 7.7-7.6A7.7 7.7 0 0 0 45.9 0a7.6 7.6 0 0 0-7.6 7.7 7.6 7.6 0 0 0 7.6 7.6zm0-11.8a4.2 4.2 0 0 1 4.2 4.2 4.2 4.2 0 0 1-4.2 4.1 4.2 4.2 0 0 1 0-8.3z"/><path d="M57.2 18.9H34.6v.2a6.7 6.7 0 0 0-3.7-1.1 6.8 6.8 0 0 0-6.5 4.6 12.8 12.8 0 0 0-6.1-1.7h-6.1a8.8 8.8 0 0 0-8.5 6.6L.1 42a1.8 1.8 0 0 0 1.2 2.2h.5a1.8 1.8 0 0 0 1.7-1.3l.4-2 3.2-12.5a5.2 5.2 0 0 1 5.1-4h6.1c2 0 5.1 1.1 6 2.9v.2a.1.1 0 0 1 .1.1 6.9 6.9 0 0 0 6.4 4.3 7 7 0 0 0 6.9-6 1.3 1.3 0 0 0 .1-.6v-2.9h16l.5 16.7v1.4a1.7 1.7 0 0 0 1.8 1.7 1.7 1.7 0 0 0 1.7-1.8zm-26.3 9.5a3.5 3.5 0 0 1-3.4-3.5 3.4 3.4 0 0 1 3.4-3.4 3.5 3.5 0 0 1 3.5 3.4 3.5 3.5 0 0 1-3.5 3.5z"/><path d="M42.2 42.3a1.8 1.8 0 0 0-1.8 1.8v16.7a1.8 1.8 0 0 0 1.8 1.7 1.8 1.8 0 0 0 1.7-1.7V44.1a1.8 1.8 0 0 0-1.7-1.8zm7.4 0a1.8 1.8 0 0 0-1.7 1.8v16.7a1.8 1.8 0 0 0 1.7 1.7 1.8 1.8 0 0 0 1.8-1.7V44.1a1.8 1.8 0 0 0-1.8-1.8zM22.7 34l-.4 15.2a1.8 1.8 0 1 0 3.5.1l.3-11.7h9.6l.4 11.7a1.8 1.8 0 0 0 1.7 1.7h.1a1.9 1.9 0 0 0 1.7-1.8L39.1 34z"/><path d="M33.5 48.5a1.7 1.7 0 0 0-1.4.7 1.5 1.5 0 0 0-.4 1.1v11.3a1.8 1.8 0 0 0 1.8 1.8 1.8 1.8 0 0 0 1.7-1.8V50.3a1.5 1.5 0 0 0-.4-1.1 1.7 1.7 0 0 0-1.3-.7zm-5.1 0a1.7 1.7 0 0 0-1.4.7 2.1 2.1 0 0 0-.4 1.1v11.3a1.8 1.8 0 0 0 1.8 1.8 1.7 1.7 0 0 0 1.7-1.8V50.3a2 2 0 0 0-.3-1.1 1.7 1.7 0 0 0-1.4-.7z"/></symbol><symbol id="icn-hair" viewBox="0 0 55.5 52.5"><path d="M41.6 6.4A20.1 20.1 0 0 0 30.5 3a19.8 19.8 0 0 0-13 4.8 8.8 8.8 0 1 0-8.7 9.7 8.4 8.4 0 0 0 2.7-.4 17.9 17.9 0 0 0-.9 5.7c0 10.9 8.9 20.4 19.9 19.8 7.2-.4 7.2-17.7 7.2-17.7v12.7a28 28 0 0 0 4.2 14.9V17c1 3.5 4.9 6.1 9.5 6.1h4.1c0-14.5-13.9-16.7-13.9-16.7z"/></symbol><symbol id="icn-hands" viewBox="0 0 58.2 71.5"><path d="M57 20a3.6 3.6 0 0 0-4.9.4L49 23.8l-5.3 6c.7-4.6 2.7-13.2 3.9-18 .8-3-.7-5-2.5-5.5s-4.1.5-4.9 3.2l-3.8 11.3c0-2.6.1-5.4.2-7.6.1-3.8.2-7 .1-8.5A4.4 4.4 0 0 0 32.6 0c-1.9-.1-4 1.1-4.4 4.1s-.5 5.1-.8 8.5-.7 7.1-1 10.3c-.7-2.6-1.5-5.7-2.1-7.8s-1.2-5.2-1.6-6.2a4 4 0 0 0-4.9-3c-1.9.5-3.6 2.6-2.9 6s2.7 15.8 3.4 20.4c.4 3 .1 5.8-.9 7.1a1.4 1.4 0 0 1-1.1.6c-.9.1-2-1.6-3.1-3.3a14.6 14.6 0 0 0-3.2-4.1c-2.8-2.2-7.3-1-9.1.8a2.5 2.5 0 0 0-.4 3.5c1.5 1.9 8.1 10.6 12.6 17a21.6 21.6 0 0 0 7.9 7.2 11.4 11.4 0 0 1 2.3 1.6c1 1.2 1 4.8.7 7a1.6 1.6 0 0 0 1.3 1.8h.2a1.5 1.5 0 0 0 1.5-1.4c.1-.6 1-6.6-1.4-9.4a11.4 11.4 0 0 0-3-2.3 17.7 17.7 0 0 1-6.9-6.3C11.2 45.8 5.2 37.8 3.3 35.4a4.3 4.3 0 0 1 2-.8 3.7 3.7 0 0 1 2.8.4 12.9 12.9 0 0 1 2.5 3.3c1.5 2.4 3.1 5 6 4.8a4.2 4.2 0 0 0 3.2-1.8c1.6-2 2.2-5.5 1.6-9.5S18.6 14.1 18 11.3s.1-2.3.6-2.4.9.1 1.2 1 .9 3.2 1.5 5.9c3.6 14.3 4 14.8 5.6 14.8a1.5 1.5 0 0 0 1.6-1.2c.5-1.4 1.1-7.4 2-16.5.3-3.4.6-6.6.8-8.5s.5-1.3 1.1-1.3 1.2.5 1.2 1.7 0 4.7-.1 8.3c-.6 17-.5 17 1.2 17.4a1.7 1.7 0 0 0 1.9-1.2c1.1-2.7 5.9-16.8 6.5-18.9s.8-1.2 1.2-1.1.6.8.3 1.7-1.8 7.1-2.8 12.2c-2.1 9.9-1.6 10.8-.6 11.5a2 2 0 0 0 2.2-.2c1.3-1.1 4.4-4.6 8-8.6l2.9-3.3c.2-.3.5-.4.7-.2s.2.8-.4 1.7c-2.9 4-8 11.4-9 15.6a33.2 33.2 0 0 0-.7 7.1c-.1 3.8-.3 8.6-1.6 10.6a1.6 1.6 0 0 0 .5 2.1 1.5 1.5 0 0 0 2.1-.4c1.8-2.7 2-7.6 2.1-12.2a35.1 35.1 0 0 1 .6-6.5c1-3.9 6.7-12.1 8.5-14.5s1.2-4.8-.1-5.9z"/><path d="M38.5 35.1a1 1 0 0 0-1.4.1 1.1 1.1 0 0 0 .1 1.4l2.4 2a.9.9 0 0 0 .7.3 1.3 1.3 0 0 0 .7-.4 1 1 0 0 0-.1-1.4z"/></symbol><symbol id="icn-children" viewBox="0 0 45.8 58.3"><circle cx="14.9" cy="23.5" r="1.7"/><circle cx="30.9" cy="23.5" r="1.7"/><path d="M22.9 36.1a3.8 3.8 0 0 0 3.8-3.8 1.1 1.1 0 0 0-1.1-1.1 1.1 1.1 0 0 0-1.2 1.1 1.6 1.6 0 0 1-1.5 1.6 1.6 1.6 0 0 1-1.6-1.6 1.1 1.1 0 0 0-2.2 0 3.8 3.8 0 0 0 3.8 3.8zm0-7.4a2.6 2.6 0 0 0 1.9-.7 1 1 0 0 0 .5-1.5 1.1 1.1 0 0 0-1.5-.5l-.4.3a1.1 1.1 0 0 1-1.1 0 1.1 1.1 0 0 0-1.4 1.8 3.6 3.6 0 0 0 2 .6z"/><path d="M38.7 41.3L33.1 39a17.6 17.6 0 0 0 5.4-8 6.8 6.8 0 0 0 6-7.6 6.5 6.5 0 0 0-2.4-4.5C41.4 7.4 33.9 0 22.9 0S4.7 7.2 4 18.8a6.5 6.5 0 0 0-2.9 5.4 6.9 6.9 0 0 0 6.1 6.9 17 17 0 0 0 5.5 8l-5.6 2.3C3.6 42.8 0 44.8 0 49.2v8a1.1 1.1 0 0 0 1.1 1.1 1.1 1.1 0 0 0 1.2-1.1v-8c0-2.7 2.1-4.2 5.7-5.8l4.6-1.9a10.3 10.3 0 0 0 20.6 0l4.5 1.9c3.7 1.6 5.8 3.1 5.8 5.8v8a1.1 1.1 0 0 0 1.1 1.1 1.2 1.2 0 0 0 1.2-1.1v-8c0-4.4-3.7-6.4-7.1-7.9zm-30.5-16a1.1 1.1 0 0 0-1.3-1 1.3 1.3 0 0 0-1 1.3c.2 1 .3 1.9.6 2.9a4.7 4.7 0 0 1-3.1-4.3 4.5 4.5 0 0 1 2.2-3.8l.3-.2v.6a1.1 1.1 0 0 0 1.2 1.1 1.1 1.1 0 0 0 1.1-1.1v-1.1h.2a9.4 9.4 0 0 0 3.4-.8l.9-.4 2.7.7h2.2a16.3 16.3 0 0 0 10.9-5.7 21.3 21.3 0 0 0 9 6v1.1a1.2 1.2 0 0 0 1.1 1.4 1.2 1.2 0 0 0 1.2-1.2v-.6l.5.3a4.4 4.4 0 0 1 1.1 6.3 4.1 4.1 0 0 1-2.2 1.7l.6-2.8a1.2 1.2 0 0 0-1-1.3 1 1 0 0 0-1.3 1C37 29.7 34.4 40 22.9 40S8.8 29.7 8.2 25.3zm19.2 16.5a4.6 4.6 0 0 1-9 0 19.5 19.5 0 0 0 9 0zm-4.5 7.4a8 8 0 0 1-8-8v-.8l1.1.6v.2a6.8 6.8 0 0 0 6.9 6.8 6.7 6.7 0 0 0 6.8-6.8V41l1.2-.6v.8a8 8 0 0 1-8 8z"/></symbol><symbol id="icn-lips" viewBox="0 0 59 24.7"><path d="M51.4 14.5a1.4 1.4 0 0 0-1.9.8c0 .1-3.3 6.5-19 6.5h-.2c-16.6 0-19.8-7.5-19.9-7.7a1.4 1.4 0 0 0-1.8-.8 1.3 1.3 0 0 0-.9 1.8c.1.4 3.7 9.5 22.6 9.6h.2c17.8 0 21.5-8 21.6-8.3a1.5 1.5 0 0 0-.7-1.9zm7.5-8.3a1.4 1.4 0 0 0-1.9-.9l-1.7.6-12.4-4.8a10.5 10.5 0 0 0-7.8 0l-5.1 2-4.2-2a11.1 11.1 0 0 0-8-.6L3.9 5.6l-.3.2L2 5.3a1.4 1.4 0 0 0-1.9.9A1.4 1.4 0 0 0 1 8.1l8.1 2.8a43 43 0 0 0 6.9 1.6 86.4 86.4 0 0 0 13.4 1 99 99 0 0 0 15.1-1.2 31 31 0 0 0 6-1.5L58 8.1a1.5 1.5 0 0 0 .9-1.9zm-9.4 1.7A24.6 24.6 0 0 1 44 9.3a90.7 90.7 0 0 1-27.5.3A35.3 35.3 0 0 1 10.1 8L8 7.3l10.8-3.9a7.5 7.5 0 0 1 5.7.4l4.8 2.3a1.3 1.3 0 0 0 1.2 0l5.7-2.2a7.7 7.7 0 0 1 5.6 0L51 7.4z"/></symbol><symbol id="icn-nails" viewBox="0 0 23.2 47.4"><path d="M18.9 9.1V7.3a7.3 7.3 0 0 0-14.6 0v1.8a11.6 11.6 0 0 0-4.3 9v27.8a1.5 1.5 0 0 0 1.5 1.5 1.5 1.5 0 0 0 1.6-1.5V18.1a8.2 8.2 0 0 1 1.2-4.3V19a7.3 7.3 0 0 0 14.6 0v-5.3a8.3 8.3 0 0 1 1.2 4.4v27.8a1.5 1.5 0 0 0 1.6 1.5 1.5 1.5 0 0 0 1.5-1.5V18.1a11.5 11.5 0 0 0-4.3-9zm-7.3 14A4.1 4.1 0 0 1 7.4 19V7.3a4.2 4.2 0 0 1 8.4 0V19a4.1 4.1 0 0 1-4.2 4.1z"/><path d="M15.3 39.8a.9.9 0 0 0 1-1 1 1 0 0 0-1-1H7.9a1 1 0 0 0-1 1 .9.9 0 0 0 1 1zm1.6 2.4H6.3a1 1 0 0 0-1 1 1.1 1.1 0 0 0 1 1h10.6a1.1 1.1 0 0 0 1-1 1 1 0 0 0-1-1z"/></symbol><symbol id="icn-neck" viewBox="0 0 57.9 63.2"><path d="M57.6 59.5c-16.7-21.1-10.3-39.2-9.4-41.4a6.9 6.9 0 0 0 4.3-2.2 10.1 10.1 0 0 0 2.7-6 10.1 10.1 0 0 0-1.3-6.5A7.2 7.2 0 0 0 48.8 0a1.6 1.6 0 0 0-1.7 1.4 1.5 1.5 0 0 0 1.4 1.7A3.7 3.7 0 0 1 51.2 5a6.9 6.9 0 0 1 .9 4.5 6.5 6.5 0 0 1-1.8 4.2 3.6 3.6 0 0 1-3.1 1.3 1.7 1.7 0 0 0-1.7 1.1h-.1c-7.9 10.3-20.4 20.2-28 21.2a9.9 9.9 0 0 1-6.5-2.3c-.1-.2-6.5-7.3-7.3-16.5a136.4 136.4 0 0 1-.4-16.9A1.5 1.5 0 0 0 1.7 0 1.6 1.6 0 0 0 .1 1.5a142.8 142.8 0 0 0 .4 17.3 32 32 0 0 0 4.7 13.5 17.6 17.6 0 0 0 3.2 4.5l.2.3.3.2a12 12 0 0 0 7.5 3.2 36.1 36.1 0 0 1 .5 6.2c-.2 3-.9 6-5.3 7.7a27.6 27.6 0 0 1-9.5 1.8 1.6 1.6 0 0 0-1.6 1.6A1.5 1.5 0 0 0 2 59.4h.3a30.4 30.4 0 0 0 10.4-2 10.9 10.9 0 0 0 7.4-10.5 26.4 26.4 0 0 0-.5-6.6c7.1-1.5 16.5-8.7 23.9-16.8-1.2 8.1-.8 22.3 11.5 38.1a1.6 1.6 0 0 0 1.3.6 1.9 1.9 0 0 0 1-.3 1.8 1.8 0 0 0 .3-2.4z"/><path d="M45.2 59.2h-16c0 .1-3.6 2.5-6.8 1.8a.9.9 0 0 0-1.2.7 1 1 0 0 0 .7 1.2l1.8.2a13.6 13.6 0 0 0 6.4-2h15.1a1.1 1.1 0 0 0 1-1 1 1 0 0 0-1-.9z"/></symbol><symbol id="icn-teens" viewBox="0 0 45.8 58.3"><circle cx="14.9" cy="23.5" r="1.7"/><circle cx="30.9" cy="23.5" r="1.7"/><path d="M22.9 36.1a3.8 3.8 0 0 0 3.8-3.8 1.1 1.1 0 0 0-1.1-1.1 1.1 1.1 0 0 0-1.2 1.1 1.6 1.6 0 0 1-1.5 1.6 1.6 1.6 0 0 1-1.6-1.6 1.1 1.1 0 0 0-2.2 0 3.8 3.8 0 0 0 3.8 3.8zm0-7.4a2.6 2.6 0 0 0 1.9-.7 1 1 0 0 0 .5-1.5 1.1 1.1 0 0 0-1.5-.5l-.4.3a1.1 1.1 0 0 1-1.1 0 1.1 1.1 0 0 0-1.4 1.8 3.6 3.6 0 0 0 2 .6z"/><path d="M38.7 41.3L33.1 39a17.6 17.6 0 0 0 5.4-8 6.8 6.8 0 0 0 6-7.6 6.5 6.5 0 0 0-2.4-4.5C41.4 7.4 33.9 0 22.9 0S4.7 7.2 4 18.8a6.5 6.5 0 0 0-2.9 5.4 6.9 6.9 0 0 0 6.1 6.9 17 17 0 0 0 5.5 8l-5.6 2.3C3.6 42.8 0 44.8 0 49.2v8a1.1 1.1 0 0 0 1.1 1.1 1.1 1.1 0 0 0 1.2-1.1v-8c0-2.7 2.1-4.2 5.7-5.8l4.6-1.9a10.3 10.3 0 0 0 20.6 0l4.5 1.9c3.7 1.6 5.8 3.1 5.8 5.8v8a1.1 1.1 0 0 0 1.1 1.1 1.2 1.2 0 0 0 1.2-1.1v-8c0-4.4-3.7-6.4-7.1-7.9zm-30.5-16a1.1 1.1 0 0 0-1.3-1 1.3 1.3 0 0 0-1 1.3c.2 1 .3 1.9.6 2.9a4.7 4.7 0 0 1-3.1-4.3 4.5 4.5 0 0 1 2.2-3.8l.3-.2v.6a1.1 1.1 0 0 0 1.2 1.1 1.1 1.1 0 0 0 1.1-1.1v-1.1h.2a9.4 9.4 0 0 0 3.4-.8l.9-.4 2.7.7h2.2a16.3 16.3 0 0 0 10.9-5.7 21.3 21.3 0 0 0 9 6v1.1a1.2 1.2 0 0 0 1.1 1.4 1.2 1.2 0 0 0 1.2-1.2v-.6l.5.3a4.4 4.4 0 0 1 1.1 6.3 4.1 4.1 0 0 1-2.2 1.7l.6-2.8a1.2 1.2 0 0 0-1-1.3 1 1 0 0 0-1.3 1C37 29.7 34.4 40 22.9 40S8.8 29.7 8.2 25.3zm19.2 16.5a4.6 4.6 0 0 1-9 0 19.5 19.5 0 0 0 9 0zm-4.5 7.4a8 8 0 0 1-8-8v-.8l1.1.6v.2a6.8 6.8 0 0 0 6.9 6.8 6.7 6.7 0 0 0 6.8-6.8V41l1.2-.6v.8a8 8 0 0 1-8 8z"/></symbol><symbol id="icn-hair-and-scalp" viewBox="0 0 32 32"><path d="M31.7 16.6a1.3 1.3 0 0 1-1.2.7c-.8.1-1.1-.4-1.5-1.4v-.3a21.1 21.1 0 0 0-.6-6.1L28 8.2A10.7 10.7 0 0 0 27 6l-.6-1-1-1.2A10 10 0 0 0 24 2.3 10.5 10.5 0 0 0 18.3 0a2.5 2.5 0 0 0-1.9.5 2.5 2.5 0 0 0-1.9-.5 10.5 10.5 0 0 0-5.7 2.3l-.7.7L7 4.1h-.1a12.2 12.2 0 0 0-3.2 5.2C2.8 12.9 3.3 16 3 17s-.6 1.5-1.5 1.5a1.4 1.4 0 0 1-1.2-.7c0 .2.7 2.3 1.9 2a12.1 12.1 0 0 0-.2 2.3 10.2 10.2 0 0 0 2.3 6.3 13.9 13.9 0 0 0 .6 1.3A3.9 3.9 0 0 0 7.4 31a28.3 28.3 0 0 1-.9-2.7 11.5 11.5 0 0 1 1.9 2.6l.3.7h.4l.6-.2c-.1-.2-.1-.4-.2-.5l.3.4 1.2-.9 1-1.5v-.2a.4.4 0 0 0 .1-.3.4.4 0 0 0 .1-.3.4.4 0 0 0 .1-.3v-.2h.1v-.5h-.1L10.7 25c-1-.8-1.6-1.8-2.3-3.9-.1-.2-.1-.4-.2-.6l-.4.2a3.1 3.1 0 0 0-.1-1l.3-4.9c.2 1.7.5 3.3.6 5.3l.2-10.5a6.5 6.5 0 0 1 2.6-1.9 11.7 11.7 0 0 1 2.7.5l.8.5a.4.4 0 0 1-.1-.3h.2l.7.4c-.1 0-.1-.1-.1-.2l.6.2.5-.2a.3.3 0 0 1-.1.2l.6-.3.4-.2a.4.4 0 0 1-.1.3l.7-.5 2.4-.6 2 1.4c1.6 1.6 1.7 6.8 1.5 10.2l-.2 1.2h.2a2 2 0 0 0-.1.7c-.7 2.1-1.2 3-2.3 3.8l-2 1.4c0 .1.1.2.1.3a1.3 1.3 0 0 0 .1.6v.9h.1a.4.4 0 0 0 .1.3.4.4 0 0 0 .1.3.1.1 0 0 1 .1.1 4.6 4.6 0 0 0 1 1.4 2.3 2.3 0 0 0 .7.7l.9-1.1a3.4 3.4 0 0 0-.1 1.5l.6.2c0 .1.1.1.2.1A4.1 4.1 0 0 1 24 30a11 11 0 0 1 1.8-2.6v.8c-.1 1.5-.8 3.1-.8 3.8s2.8-3.2 3.5-5.2l-.3 1.8a6.6 6.6 0 0 0 1.1-3.5 11.2 11.2 0 0 0 .8-4.2 6.7 6.7 0 0 0-.3-2.3c1.3.2 1.9-1.9 1.9-2z"/></symbol><symbol id="icn-nappy-area" viewBox="0 0 32 27"><path d="M2.1 14.3a12.8 12.8 0 0 0 2.7 7.4 8.7 8.7 0 0 0 5.4 3.2 17.9 17.9 0 0 0-3.3-7.1 11.1 11.1 0 0 0-4.8-3.5zM2 6h4v2H2zm23.1 11.8a19.4 19.4 0 0 0-3.3 7.1 8.7 8.7 0 0 0 5.4-3.2 13.5 13.5 0 0 0 2.7-7.4 11.1 11.1 0 0 0-4.8 3.5zM26 6h4v2h-4z" fill="none"/><path d="M2 4h5a1 1 0 0 1 1 1v4a1 1 0 0 1-1 1H2v2.2a12.9 12.9 0 0 1 6.5 4.4 20.3 20.3 0 0 1 3.8 8.4h7.4a20.3 20.3 0 0 1 3.8-8.4 12.9 12.9 0 0 1 6.5-4.4V10h-5a1 1 0 0 1-1-1V5a1 1 0 0 1 1-1h5V2H2z" fill="none"/><path d="M31 0H1a1.1 1.1 0 0 0-1 1v12a15.9 15.9 0 0 0 3.2 9.9 10.7 10.7 0 0 0 8.3 4.1h9a10.8 10.8 0 0 0 8.3-4.1A15.9 15.9 0 0 0 32 13V1a1.1 1.1 0 0 0-1-1zM2 6h4v2H2zm2.8 15.7a12.8 12.8 0 0 1-2.7-7.4 11.1 11.1 0 0 1 4.8 3.5 17.9 17.9 0 0 1 3.3 7.1 8.7 8.7 0 0 1-5.4-3.2zm22.4 0a8.7 8.7 0 0 1-5.4 3.2 19.4 19.4 0 0 1 3.3-7.1 11.1 11.1 0 0 1 4.8-3.5 13.5 13.5 0 0 1-2.7 7.4zM30 8h-4V6h4zm0-4h-5a1 1 0 0 0-1 1v4a1 1 0 0 0 1 1h5v2.2a12.9 12.9 0 0 0-6.5 4.4 20.3 20.3 0 0 0-3.8 8.4h-7.4a20.3 20.3 0 0 0-3.8-8.4A12.9 12.9 0 0 0 2 12.2V10h5a1 1 0 0 0 1-1V5a1 1 0 0 0-1-1H2V2h28z"/></symbol></svg>