<svg xmlns="http://www.w3.org/2000/svg"><symbol id="icn-7-days-week" viewBox="0 0 70.5 64"><path fill="none" stroke="#010101" stroke-width="4" stroke-miterlimit="10" d="M64.8 62H5.7c-2 0-3.7-1.7-3.7-3.7V11.9c0-2 1.7-3.7 3.7-3.7h59.2c2 0 3.7 1.7 3.7 3.7v46.4c-.1 2-1.7 3.7-3.8 3.7z"/><path d="M15.5 2v12.3M55.1 2v12.3M2 22.9h66.5" fill="none" stroke="#010101" stroke-width="4" stroke-linecap="round" stroke-linejoin="round" stroke-miterlimit="10"/><path d="M15.9 38.7c-1.2 0-2.1-1-2.1-2.1s1-2.1 2.1-2.1 2.1 1 2.1 2.1-.9 2.1-2.1 2.1zm12.9 0c-1.2 0-2.1-1-2.1-2.1s1-2.1 2.1-2.1 2.1 1 2.1 2.1-.9 2.1-2.1 2.1zm12.9 0c-1.2 0-2.1-1-2.1-2.1s1-2.1 2.1-2.1 2.1 1 2.1 2.1-.9 2.1-2.1 2.1zm12.9 0c-1.2 0-2.1-1-2.1-2.1s1-2.1 2.1-2.1 2.1 1 2.1 2.1-.9 2.1-2.1 2.1zM15.9 51.3c-1.2 0-2.1-1-2.1-2.1s1-2.1 2.1-2.1 2.1 1 2.1 2.1-.9 2.1-2.1 2.1zm12.9 0c-1.2 0-2.1-1-2.1-2.1s1-2.1 2.1-2.1 2.1 1 2.1 2.1-.9 2.1-2.1 2.1zm12.9 0c-1.2 0-2.1-1-2.1-2.1s1-2.1 2.1-2.1 2.1 1 2.1 2.1-.9 2.1-2.1 2.1zm12.9 0c-1.2 0-2.1-1-2.1-2.1s1-2.1 2.1-2.1 2.1 1 2.1 2.1-.9 2.1-2.1 2.1z" fill="#010101"/></symbol><symbol id="icn-night" viewBox="0 0 63.5 68.2"><path fill="none" stroke="#010101" stroke-width="4" stroke-linejoin="round" stroke-miterlimit="10" d="M23.2 30C23.2 16.3 34.3 5.2 48 5.2h.1c-4.2-2.1-9-3.2-14-3.2C16.4 2 2 16.4 2 34.1s14.4 32.1 32.1 32.1c11.6 0 21.8-6.2 27.4-15.5-3.9 2.6-8.6 4-13.6 4-13.6.1-24.7-11-24.7-24.7z"/></symbol><symbol id="icn-day" viewBox="0 0 78.9 78.9"><circle fill="none" stroke="#010101" stroke-width="4" stroke-linejoin="round" stroke-miterlimit="10" cx="39.4" cy="39.4" r="16.4"/><path fill="none" stroke="#010101" stroke-width="4" stroke-linecap="round" stroke-linejoin="round" stroke-miterlimit="10" d="M39.4 2v12.3m0 50.3v12.3M2 39.4h12.3m50.3 0h12.3M13 13l8.7 8.7m35.5 35.5l8.7 8.7m-52.9 0l8.7-8.7m35.5-35.5l8.7-8.7"/></symbol><symbol id="icn-evening" viewBox="0 0 52.3 55.6"><path d="M52.2 20.8a1.3 1.3 0 0 0-.4-1.5 1.6 1.6 0 0 0-1.6-.3 10.9 10.9 0 0 1-4.3.8A11.4 11.4 0 0 1 34.4 8.3 11.1 11.1 0 0 1 36 2.4a1.7 1.7 0 0 0 0-1.7 1.5 1.5 0 0 0-1.4-.7 16.8 16.8 0 0 0-13.9 23.7 14.3 14.3 0 0 0-9 10.5h-1a10.7 10.7 0 0 0 0 21.4h28.2a10.7 10.7 0 0 0 1-21.4l-.3-1.1a16.8 16.8 0 0 0 12.6-12.3zm-5.7 24.1a7.6 7.6 0 0 1-7.6 7.6H10.7a7.6 7.6 0 0 1 0-15.2H13a1.6 1.6 0 0 0 1.6-1.4 11.3 11.3 0 0 1 8.7-9.8l2.5-.3a11.4 11.4 0 0 1 10.3 6.7 10.1 10.1 0 0 1 .9 3.4 1.6 1.6 0 0 0 1.6 1.4h.3a7.6 7.6 0 0 1 7.6 7.6zm-8.1-14.7a14.3 14.3 0 0 0-12.6-7.5l-2 .2a13.2 13.2 0 0 1-1.5-6.2A13.8 13.8 0 0 1 32 3.6a14.9 14.9 0 0 0-.7 4.7 14.6 14.6 0 0 0 14.6 14.6 9.7 9.7 0 0 0 2.4-.2 13.9 13.9 0 0 1-9.9 7.5z"/></symbol><symbol id="icn-morning" viewBox="0 0 55.1 36.7"><path d="M27.4 0A1.6 1.6 0 0 0 26 1.6V10a1.6 1.6 0 0 0 1.6 1.5 1.5 1.5 0 0 0 1.5-1.5V1.6A1.5 1.5 0 0 0 27.6 0zM10.6 4.6a1.5 1.5 0 0 0-1.4 1.7c.1.2.1.4.2.6l3.9 6.9a1.5 1.5 0 0 0 2 .6 1.5 1.5 0 0 0 .6-2.1l-3.8-6.9a1.4 1.4 0 0 0-1.5-.8zm9.1 0a1.6 1.6 0 0 0-1.3 1.7.4.4 0 0 0 .1.3l1.5 4.6a1.7 1.7 0 0 0 2 1 1.6 1.6 0 0 0 .9-2l-1.5-4.6a1.5 1.5 0 0 0-1.7-1zm15.4 0a1.4 1.4 0 0 0-1.3 1l-1.6 4.6a1.7 1.7 0 0 0 1 2 1.5 1.5 0 0 0 1.9-1l1.6-4.6a1.5 1.5 0 0 0-1-1.9zm9.1 0a1.6 1.6 0 0 0-1.2.8l-3.8 6.9a1.6 1.6 0 0 0 .6 2.1 1.6 1.6 0 0 0 2.1-.6l3.8-6.9a1.6 1.6 0 0 0-.5-2.1 1.6 1.6 0 0 0-1-.2zM6 12.2a1.7 1.7 0 0 0-1.4 1.7 1.9 1.9 0 0 0 .5 1l3.1 3a1.4 1.4 0 0 0 2.1 0 1.5 1.5 0 0 0 .1-2.1c-.1 0-.1 0-.1-.1l-3-3a2.1 2.1 0 0 0-1.3-.5zm42.8 0a1.3 1.3 0 0 0-.9.5l-3.1 3a1.6 1.6 0 0 0 0 2.2 1.5 1.5 0 0 0 2.1.1h.1l3-3a1.5 1.5 0 0 0 .1-2.2 1.5 1.5 0 0 0-1.3-.6zm-21.2 1.6A21.5 21.5 0 0 0 6.2 33.6H1.5A1.6 1.6 0 0 0 0 35.2a1.6 1.6 0 0 0 1.6 1.5h52a1.5 1.5 0 0 0 1.5-1.5 1.7 1.7 0 0 0-1.5-1.6h-4.7a21.4 21.4 0 0 0-21.3-19.8zm0 3a18.2 18.2 0 0 1 18.2 16.8H9.3a18.3 18.3 0 0 1 18.3-16.8zM1.5 18.3A1.6 1.6 0 0 0 .1 20a1.5 1.5 0 0 0 .7 1.2l3.8 2.3a1.7 1.7 0 0 0 2.2-.3 1.7 1.7 0 0 0-.3-2.2h-.3l-3.8-2.4a1.6 1.6 0 0 0-.9-.3zm51.9 0l-.6.3-3.9 2.3a1.6 1.6 0 0 0-.7 2 1.5 1.5 0 0 0 2.1.7h.2l3.8-2.3a1.5 1.5 0 0 0 .6-2.1 1.8 1.8 0 0 0-1.5-.9z"/></symbol><symbol id="icn-once-or-twice-a-week" viewBox="0 0 70.5 64"><path fill="none" stroke="#010101" stroke-width="4" stroke-miterlimit="10" d="M64.8 62H5.7c-2 0-3.7-1.7-3.7-3.7V11.9c0-2 1.7-3.7 3.7-3.7h59.2c2 0 3.7 1.7 3.7 3.7v46.4c-.1 2-1.7 3.7-3.8 3.7z"/><path d="M15.5 2v12.3M55.1 2v12.3M2 22.9h66.5" fill="none" stroke="#010101" stroke-width="4" stroke-linecap="round" stroke-linejoin="round" stroke-miterlimit="10"/><path d="M15.9 38.7c-1.2 0-2.1-1-2.1-2.1s1-2.1 2.1-2.1 2.1 1 2.1 2.1-.9 2.1-2.1 2.1zm12.9 0c-1.2 0-2.1-1-2.1-2.1s1-2.1 2.1-2.1 2.1 1 2.1 2.1-.9 2.1-2.1 2.1zm12.9 0c-1.2 0-2.1-1-2.1-2.1s1-2.1 2.1-2.1 2.1 1 2.1 2.1-.9 2.1-2.1 2.1zm12.9 0c-1.2 0-2.1-1-2.1-2.1s1-2.1 2.1-2.1 2.1 1 2.1 2.1-.9 2.1-2.1 2.1zM15.9 51.3c-1.2 0-2.1-1-2.1-2.1s1-2.1 2.1-2.1 2.1 1 2.1 2.1-.9 2.1-2.1 2.1zm12.9 0c-1.2 0-2.1-1-2.1-2.1s1-2.1 2.1-2.1 2.1 1 2.1 2.1-.9 2.1-2.1 2.1zm12.9 0c-1.2 0-2.1-1-2.1-2.1s1-2.1 2.1-2.1 2.1 1 2.1 2.1-.9 2.1-2.1 2.1zm12.9 0c-1.2 0-2.1-1-2.1-2.1s1-2.1 2.1-2.1 2.1 1 2.1 2.1-.9 2.1-2.1 2.1z" fill="#010101"/></symbol><symbol id="icn-once-or-twice-a-day" viewBox="0 0 70.5 64"><path fill="none" stroke="#010101" stroke-width="4" stroke-miterlimit="10" d="M64.8 62H5.7c-2 0-3.7-1.7-3.7-3.7V11.9c0-2 1.7-3.7 3.7-3.7h59.2c2 0 3.7 1.7 3.7 3.7v46.4c-.1 2-1.7 3.7-3.8 3.7z"/><path d="M15.5 2v12.3M55.1 2v12.3M2 22.9h66.5" fill="none" stroke="#010101" stroke-width="4" stroke-linecap="round" stroke-linejoin="round" stroke-miterlimit="10"/><path d="M15.9 38.7c-1.2 0-2.1-1-2.1-2.1s1-2.1 2.1-2.1 2.1 1 2.1 2.1-.9 2.1-2.1 2.1zm12.9 0c-1.2 0-2.1-1-2.1-2.1s1-2.1 2.1-2.1 2.1 1 2.1 2.1-.9 2.1-2.1 2.1zm12.9 0c-1.2 0-2.1-1-2.1-2.1s1-2.1 2.1-2.1 2.1 1 2.1 2.1-.9 2.1-2.1 2.1zm12.9 0c-1.2 0-2.1-1-2.1-2.1s1-2.1 2.1-2.1 2.1 1 2.1 2.1-.9 2.1-2.1 2.1zM15.9 51.3c-1.2 0-2.1-1-2.1-2.1s1-2.1 2.1-2.1 2.1 1 2.1 2.1-.9 2.1-2.1 2.1zm12.9 0c-1.2 0-2.1-1-2.1-2.1s1-2.1 2.1-2.1 2.1 1 2.1 2.1-.9 2.1-2.1 2.1zm12.9 0c-1.2 0-2.1-1-2.1-2.1s1-2.1 2.1-2.1 2.1 1 2.1 2.1-.9 2.1-2.1 2.1zm12.9 0c-1.2 0-2.1-1-2.1-2.1s1-2.1 2.1-2.1 2.1 1 2.1 2.1-.9 2.1-2.1 2.1z" fill="#010101"/></symbol><symbol id="icn-several-times-a-day" viewBox="0 0 70.5 64"><path fill="none" stroke="#010101" stroke-width="4" stroke-miterlimit="10" d="M64.8 62H5.7c-2 0-3.7-1.7-3.7-3.7V11.9c0-2 1.7-3.7 3.7-3.7h59.2c2 0 3.7 1.7 3.7 3.7v46.4c-.1 2-1.7 3.7-3.8 3.7z"/><path d="M15.5 2v12.3M55.1 2v12.3M2 22.9h66.5" fill="none" stroke="#010101" stroke-width="4" stroke-linecap="round" stroke-linejoin="round" stroke-miterlimit="10"/><path d="M15.9 38.7c-1.2 0-2.1-1-2.1-2.1s1-2.1 2.1-2.1 2.1 1 2.1 2.1-.9 2.1-2.1 2.1zm12.9 0c-1.2 0-2.1-1-2.1-2.1s1-2.1 2.1-2.1 2.1 1 2.1 2.1-.9 2.1-2.1 2.1zm12.9 0c-1.2 0-2.1-1-2.1-2.1s1-2.1 2.1-2.1 2.1 1 2.1 2.1-.9 2.1-2.1 2.1zm12.9 0c-1.2 0-2.1-1-2.1-2.1s1-2.1 2.1-2.1 2.1 1 2.1 2.1-.9 2.1-2.1 2.1zM15.9 51.3c-1.2 0-2.1-1-2.1-2.1s1-2.1 2.1-2.1 2.1 1 2.1 2.1-.9 2.1-2.1 2.1zm12.9 0c-1.2 0-2.1-1-2.1-2.1s1-2.1 2.1-2.1 2.1 1 2.1 2.1-.9 2.1-2.1 2.1zm12.9 0c-1.2 0-2.1-1-2.1-2.1s1-2.1 2.1-2.1 2.1 1 2.1 2.1-.9 2.1-2.1 2.1zm12.9 0c-1.2 0-2.1-1-2.1-2.1s1-2.1 2.1-2.1 2.1 1 2.1 2.1-.9 2.1-2.1 2.1z" fill="#010101"/></symbol><symbol id="icn-once-a-day" viewBox="0 0 70.5 64"><path fill="none" stroke="#010101" stroke-width="4" stroke-miterlimit="10" d="M64.8 62H5.7c-2 0-3.7-1.7-3.7-3.7V11.9c0-2 1.7-3.7 3.7-3.7h59.2c2 0 3.7 1.7 3.7 3.7v46.4c-.1 2-1.7 3.7-3.8 3.7z"/><path d="M15.5 2v12.3M55.1 2v12.3M2 22.9h66.5" fill="none" stroke="#010101" stroke-width="4" stroke-linecap="round" stroke-linejoin="round" stroke-miterlimit="10"/><path d="M15.9 38.7c-1.2 0-2.1-1-2.1-2.1s1-2.1 2.1-2.1 2.1 1 2.1 2.1-.9 2.1-2.1 2.1zm12.9 0c-1.2 0-2.1-1-2.1-2.1s1-2.1 2.1-2.1 2.1 1 2.1 2.1-.9 2.1-2.1 2.1zm12.9 0c-1.2 0-2.1-1-2.1-2.1s1-2.1 2.1-2.1 2.1 1 2.1 2.1-.9 2.1-2.1 2.1zm12.9 0c-1.2 0-2.1-1-2.1-2.1s1-2.1 2.1-2.1 2.1 1 2.1 2.1-.9 2.1-2.1 2.1zM15.9 51.3c-1.2 0-2.1-1-2.1-2.1s1-2.1 2.1-2.1 2.1 1 2.1 2.1-.9 2.1-2.1 2.1zm12.9 0c-1.2 0-2.1-1-2.1-2.1s1-2.1 2.1-2.1 2.1 1 2.1 2.1-.9 2.1-2.1 2.1zm12.9 0c-1.2 0-2.1-1-2.1-2.1s1-2.1 2.1-2.1 2.1 1 2.1 2.1-.9 2.1-2.1 2.1zm12.9 0c-1.2 0-2.1-1-2.1-2.1s1-2.1 2.1-2.1 2.1 1 2.1 2.1-.9 2.1-2.1 2.1z" fill="#010101"/></symbol><symbol id="icn-as-often-as-needed" viewBox="0 0 70.5 64"><path fill="none" stroke="#010101" stroke-width="4" stroke-miterlimit="10" d="M64.8 62H5.7c-2 0-3.7-1.7-3.7-3.7V11.9c0-2 1.7-3.7 3.7-3.7h59.2c2 0 3.7 1.7 3.7 3.7v46.4c-.1 2-1.7 3.7-3.8 3.7z"/><path d="M15.5 2v12.3M55.1 2v12.3M2 22.9h66.5" fill="none" stroke="#010101" stroke-width="4" stroke-linecap="round" stroke-linejoin="round" stroke-miterlimit="10"/><path d="M15.9 38.7c-1.2 0-2.1-1-2.1-2.1s1-2.1 2.1-2.1 2.1 1 2.1 2.1-.9 2.1-2.1 2.1zm12.9 0c-1.2 0-2.1-1-2.1-2.1s1-2.1 2.1-2.1 2.1 1 2.1 2.1-.9 2.1-2.1 2.1zm12.9 0c-1.2 0-2.1-1-2.1-2.1s1-2.1 2.1-2.1 2.1 1 2.1 2.1-.9 2.1-2.1 2.1zm12.9 0c-1.2 0-2.1-1-2.1-2.1s1-2.1 2.1-2.1 2.1 1 2.1 2.1-.9 2.1-2.1 2.1zM15.9 51.3c-1.2 0-2.1-1-2.1-2.1s1-2.1 2.1-2.1 2.1 1 2.1 2.1-.9 2.1-2.1 2.1zm12.9 0c-1.2 0-2.1-1-2.1-2.1s1-2.1 2.1-2.1 2.1 1 2.1 2.1-.9 2.1-2.1 2.1zm12.9 0c-1.2 0-2.1-1-2.1-2.1s1-2.1 2.1-2.1 2.1 1 2.1 2.1-.9 2.1-2.1 2.1zm12.9 0c-1.2 0-2.1-1-2.1-2.1s1-2.1 2.1-2.1 2.1 1 2.1 2.1-.9 2.1-2.1 2.1z" fill="#010101"/></symbol></svg>