<svg xmlns="http://www.w3.org/2000/svg"><symbol id="icn-arrow-fill" viewBox="0 0 87 162.8"><path d="M3 162.8c-.8 0-1.6-.3-2.2-.9-1.2-1.2-1.1-3.1.1-4.2l77.6-74.9L3.6 5.1C2.5 3.9 2.5 2 3.7.8 4.9-.3 6.8-.3 8 .9l79.1 82-82 79.1c-.6.5-1.3.8-2.1.8z"/></symbol><symbol id="icn-arrow" viewBox="0 0 87 162.8"><path fill="none" stroke="#000" stroke-width="6" stroke-linecap="round" stroke-miterlimit="10" d="M5.8 3l77 79.8-79.8 77"/></symbol><symbol id="icn-badge" viewBox="0 0 90 90"><circle fill="#FFF" cx="45" cy="45" r="45"/><path d="M59.6 10.5l-1.1 2.4 2.8 1.3-.3.6-2.8-1.3-1.3 2.9-.7-.3 3-6.5 4 1.8-.3.6-3.3-1.5zm2.6 8.8l4-5.9.6.4-4 5.9-.6-.4zm6.4 5.5l1.5-6.7-4.1 4-.5-.5 5.1-5 .5.5-1.4 6.7 4.1-4 .5.5-5.1 5-.6-.5zm5 6.3c-.7-.2-1.2-.6-1.6-1.3l-1.2-2.1 6.2-3.5 1.2 2.1c.4.7.5 1.3.3 2-.3.9-1.2 1.4-2.1 1.9-1 .6-1.9 1.1-2.8.9zm4.2-3.1c.2-.5 0-1-.2-1.5l-.8-1.3-5 2.8.8 1.3c.3.5.6.8 1.1 1 .7.2 1.4-.3 2.3-.8s1.6-.8 1.8-1.5zm-1.7 15.3l5.4-.7-4.5-1.4-.1-.6 4-2.5-5.4.7-.1-.8 7.1-.9.1.8-4.7 3 5.3 1.6.1.8-7.1.9-.1-.9zm2.6 6l-2.9-.3.1-.8 2.9.3 4.4-1.6-.1.8-3.6 1.3 3.2 2-.1.8-3.9-2.5zm-5.7 9c.5-1 1-1.5 1.9-1.8l.2.7c-.8.3-1.2.7-1.5 1.4-.4.9-.3 1.7.5 2.1.3.2.7.2 1 .1.3-.1.4-.3.7-.7l.5-.7c.3-.5.7-.8 1-.9.4-.2.9-.2 1.4.1 1.1.5 1.4 1.6.8 2.9-.4.8-.9 1.3-1.6 1.6l-.2-.7c.6-.2 1-.6 1.3-1.2.4-.9.2-1.6-.6-1.9-.3-.1-.6-.2-.9-.1-.3.1-.5.4-.7.7l-.5.7c-.4.6-.6.8-1 .9-.5.2-1 .2-1.5-.1-1.1-.6-1.4-1.8-.8-3.1zm-5.1 7.8l4.3.7-.5-2.3-1.6-1.2.5-.6 5.6 4.4-.5.6-3.2-2.5 1.1 5.1-.5.7-.8-3.5-5-.7.6-.7zm-2.3 2.2l4.7 5.4-.6.5-4.7-5.4.6-.5zM58.7 73l6.1 3.1-2.8-5 .7-.4 3.5 6.2-.6.4-6.1-3.1 2.8 4.9-.7.4-3.6-6.2.7-.3zm-8 9.1l-1-6.4.7-.1 1 6.4 2-.3.1.7-4.8.8-.1-.7 2.1-.4zM43.1 79l.1-2.9h.8l-.2 2.9 1.9 4.3h-.8l-1.5-3.5-1.8 3.3h-.8l2.3-4.1zm-7.4-1.3l1.8.5.8-2.8.7.2-1.9 6.9-2.6-.7c-1.2-.3-1.9-1.4-1.6-2.6s1.6-1.8 2.8-1.5zm-.8 3.4l1.8.5.7-2.7-1.8-.5c-.9-.2-1.6.1-1.8 1-.3.9.2 1.5 1.1 1.7zm-2.8-7.8l-3.4 6.3-3.9-2.1.3-.6 3.2 1.7 1.2-2.2-2.6-1.4.3-.6 2.8 1.5 1.2-2.3-3.2-1.7.3-.6 3.8 2zm-11.1-6c.6.7.6 1.7-.1 2.3-.7.6-1.7.6-2.3-.1s-.6-1.7.1-2.3c.7-.6 1.7-.6 2.3.1zm-6-11.6c.7.2 1.1.7 1.4 1.4l1 2.2-6.5 2.8-1-2.2c-.3-.7-.3-1.4 0-2 .4-.8 1.3-1.3 2.3-1.7 1-.4 2-.8 2.8-.5zm-4.5 2.6c-.2.5-.1 1 .1 1.5l.6 1.4 5.3-2.3-.6-1.4c-.2-.5-.5-.9-1-1.1-.6-.2-1.4.1-2.4.5-.9.4-1.7.8-2 1.4zm4.3-6.2l-6.9 1.5-.2-.7 6.9-1.5.2.7zm-.8-8l-1.6.6.1 3.1 1.6.5v.8l-7.2-2.4v-.6l7-2.9.1.9zm-6 2.3l3.8 1.2-.1-2.6L8 46.4zm6.2-9.3c.4.6.6 1.3.4 2-.1.7-.5 1.3-1 1.6-.8.5-1.4.4-3 .1-1.6-.3-2.2-.5-2.7-1.3-.3-.5-.5-1.2-.3-1.9.3-1.3 1.3-2.1 2.6-2l-.2.8c-.9 0-1.6.5-1.8 1.4-.1.5 0 .9.3 1.3.4.5.9.7 2.3 1 1.4.3 2 .3 2.5 0 .4-.2.6-.6.7-1.1.1-.5 0-1-.3-1.4-.3-.4-.7-.5-1.2-.6l-.5-.1-.3 1.7-.6-.1.5-2.5 1.1.2c.6.1 1.1.3 1.5.9zm3.7-7.1l-6.8.9 5.2 2.5-.3.7L9.5 31l.3-.6 6.8-1-5.1-2.5.3-.7 6.4 3.1-.3.7zm4-6.7c.1.6-.1 1.2-.6 1.8-.5.6-1.1.9-1.7.9-.9.1-1.4-.3-2.7-1.3-1.2-1-1.7-1.5-1.8-2.4-.1-.6.1-1.2.6-1.8.5-.6 1.1-.9 1.7-.9.9-.1 1.5.3 2.7 1.3s1.8 1.5 1.8 2.4zm-4.4-3c-.5 0-.9.3-1.2.6-.3.4-.4.8-.4 1.3.1.6.4 1 1.5 2 1.1.9 1.5 1.2 2.2 1.2.5 0 .9-.3 1.2-.6.3-.4.4-.8.4-1.3-.1-.6-.4-1-1.5-2s-1.6-1.3-2.2-1.2zm8.9 0c-.8.6-1.6.8-2.5.7l.1-.7c.8.1 1.4-.1 2-.5.8-.6 1.1-1.4.6-2.1-.2-.3-.5-.5-.8-.5-.3 0-.5 0-1 .3l-.7.4c-.5.3-.9.4-1.4.3-.5 0-.9-.3-1.2-.7-.7-1-.5-2.1.6-3 .7-.5 1.4-.7 2.2-.6l-.1.7c-.6-.1-1.1.1-1.7.5-.8.6-.9 1.3-.4 2 .2.3.5.5.8.5.3 0 .6-.1 1-.3l.7-.4c.6-.3.9-.4 1.3-.4.5 0 1 .3 1.3.8.8.9.4 2.1-.8 3zm4.3-2.8l-3.2-6.4.7-.3 3.2 6.4-.7.3zm5.4-2.1c-1 .3-1.8.2-2.6-.2l.3-.6c.7.4 1.3.4 2.1.2 1-.3 1.5-.9 1.2-1.8-.1-.4-.3-.6-.6-.8-.3-.1-.5-.1-1-.1l-.8.1c-.6.1-1 0-1.4-.1-.4-.2-.7-.6-.9-1.1-.4-1.1.2-2.1 1.6-2.5.9-.3 1.5-.2 2.3.1l-.3.6c-.5-.3-1.1-.3-1.8-.1-.9.3-1.3.9-1.1 1.7.1.3.3.6.5.7.3.1.6.1 1 .1l.8-.1c.7-.1 1-.1 1.4.1.5.2.8.6 1 1.2.4 1.2-.3 2.2-1.7 2.6zm10.2-3c-.9 0-1.6-.8-1.6-1.7 0-.9.8-1.6 1.7-1.6.9 0 1.6.8 1.6 1.7-.1.9-.8 1.6-1.7 1.6z" fill="#010101"/><g fill="#010101"><path d="M45.1 56.1h6.4c.3 0 .5-.2.5-.5s-.2-.5-.5-.5h-6.4c-.3 0-.5.2-.5.5 0 .2.3.5.5.5zm0-6.1h6.4c.3 0 .5-.2.5-.5s-.2-.5-.5-.5h-6.4c-.3 0-.5.2-.5.5 0 .2.3.5.5.5zm0-6.1h6.4c.3 0 .5-.2.5-.5s-.2-.5-.5-.5h-6.4c-.3 0-.5.2-.5.5s.3.5.5.5zm0-6.1h6.4c.3 0 .5-.2.5-.5s-.2-.5-.5-.5h-6.4c-.3 0-.5.2-.5.5s.3.5.5.5z"/><path d="M31 65.8h28c.3 0 .5-.2.5-.5V29.6c0-.3-.2-.5-.5-.5h-7.5v-1c0-.3-.2-.5-.5-.5h-3v-.3c0-1.7-1.4-3-3-3-1.7 0-3 1.4-3 3v.3h-3c-.3 0-.5.2-.5.5v1H31c-.3 0-.5.2-.5.5v35.6c0 .3.2.6.5.6zm8.5-37.2h3c.3 0 .5-.2.5-.5v-.8c0-1.1.9-2 2-2s2 .9 2 2v.8c0 .3.2.5.5.5h3v2.6h-11v-2.6zm-.5 3.6h11.9c.3 0 .5-.2.5-.5v-1.5h3.4v30.1H35V30.1h3.4v1.5c.1.4.3.6.6.6zm-7.4-2.1H34v30.6c0 .3.2.5.5.5h20.9c.3 0 .5-.2.5-.5V30.1h2.5v34.6H31.6V30.1z"/><circle cx="45" cy="27.2" r=".7"/><path d="M37.8 35.8c-.2.2-.2.5 0 .7l.7.7-.7.8c-.2.2-.2.5 0 .7.1.1.3.2.4.2s.3-.1.4-.2l.7-.7.7.7c.1.1.3.2.4.2s.3-.1.4-.2c.2-.2.2-.5 0-.7l-.8-.7.7-.7c.2-.2.2-.5 0-.7-.2-.2-.5-.2-.7 0l-.7.7-.7-.7c-.3-.3-.6-.3-.8-.1zm.6 7.4c-.2-.2-.5-.2-.7 0-.2.2-.2.5 0 .7l1 1c.1.1.3.2.4.2s.3-.1.4-.2l2.2-2.2c.2-.2.2-.5 0-.7s-.5-.2-.7 0l-2 1.8-.6-.6zm2.5 4.8L39 49.9l-.6-.6c-.2-.2-.5-.2-.7 0-.2.2-.2.5 0 .7l1 1c.1.1.3.2.4.2s.3-.1.4-.2l2.2-2.2c.2-.2.2-.5 0-.7s-.6-.3-.8-.1zm0 6L39 55.9l-.6-.6c-.2-.2-.5-.2-.7 0s-.2.5 0 .7l1 1c.1.1.3.2.4.2s.3-.1.4-.2l2.2-2.2c.2-.2.2-.5 0-.7-.3-.3-.6-.2-.8-.1z"/></g></symbol><symbol id="icn-bullet-arrow-fill" viewBox="0 0 16.1 16.1"><path d="M7 12.1c-.1 0-.3-.1-.4-.2-.2-.2-.2-.6 0-.8l3-3-3-3c-.2-.2-.2-.6 0-.8.2-.3.6-.3.8-.1l3.4 3.4c.2.2.2.6 0 .8l-3.4 3.4c-.1.2-.2.3-.4.3z"/><path d="M8.1 16.1c-4.5 0-8.1-3.6-8.1-8S3.6 0 8.1 0s8.1 3.6 8.1 8.1-3.7 8-8.1 8zm0-15C4.3 1.1 1.2 4.2 1.2 8c0 3.8 3.1 6.9 6.9 6.9 3.8 0 6.9-3.1 6.9-6.9 0-3.7-3.1-6.9-6.9-6.9z"/></symbol><symbol id="icn-bullet-square-fill" viewBox="0 0 11 11"><path d="M1 1h9v9H1z"/><path fill="#3DBEAE" d="M11 11H0V0h11v11zM2 9h7V2H2v7z"/></symbol><symbol id="icn-cart-fill" viewBox="0 0 69.7 67.1"><path d="M32.8 67.1c-2.2 0-4.1-1.8-4.1-4.1 0-2.2 1.8-4.1 4.1-4.1s4.1 1.8 4.1 4.1c0 2.2-1.9 4.1-4.1 4.1zm22.1 0c-2.2 0-4.1-1.8-4.1-4.1 0-2.2 1.8-4.1 4.1-4.1S59 60.7 59 63c-.1 2.2-1.9 4.1-4.1 4.1zm14.4-46.4c-.4-.5-1-.8-1.7-.8H22.5L19.3 6.8c-1.4-5.6-5.7-6.9-7.8-6.9H2c-1.1 0-2 .9-2 2s.9 2 2 2h9.7s2.7 0 3.7 3.7l10.5 41.9c.6 2.5 2.4 5.4 5.5 5.4H59c1.1 0 2-.9 2-2s-.9-2-2-2H31.3c-.7 0-1.4-1.3-1.6-2.2l-1-3.8h30.6c.8 0 1.6-.6 1.9-1.4l8.4-20.9c.2-.6.1-1.3-.3-1.9zM57.9 40.9H27.7l-4.2-17h41.2l-6.8 17z"/></symbol><symbol id="icn-checkmark-circle-fill" viewBox="0 0 16.1 16.1"><path d="M8.1 16.1c-4.5 0-8.1-3.6-8.1-8S3.6 0 8.1 0s8.1 3.6 8.1 8.1-3.7 8-8.1 8zm0-15C4.3 1.1 1.2 4.2 1.2 8s3.1 7 6.9 7S15 11.9 15 8.1s-3.1-7-6.9-7z"/><path d="M6.7 11c-.2 0-.3-.1-.4-.2l-2-2c-.3-.2-.3-.5 0-.7.2-.2.6-.2.8 0l1.6 1.6 4.4-4.4c.2-.2.6-.2.8 0 .2.2.2.6 0 .8l-4.8 4.8c-.1.1-.3.1-.4.1z"/></symbol><symbol id="icn-checkmark" viewBox="0 0 7.9 5.9"><path fill="none" stroke="#010101" stroke-width="1.149" stroke-linecap="round" stroke-linejoin="round" stroke-miterlimit="10" d="M.6 3.4l2 2L7.4.6"/></symbol><symbol id="icn-heart" viewBox="0 0 64 61.3"><path fill="currentColor" d="M35 55.9l-3 2.6-3-2.6C13.7 41.6 2.8 30.6 2.8 18.9c0-9 6.6-16 15.1-16 4.6 0 9.4 2.3 12.5 6.1.4.5 1 .8 1.6.8.6 0 1.2-.3 1.6-.8 3-3.8 7.8-6.1 12.5-6.1 8.5 0 15.1 7 15.1 16 0 11.7-10.8 22.7-26.2 37z"/><path d="M45.5 4C53.6 4 60 10.7 60 19.3c0 11.3-10.4 21.8-25.1 35.5L32 57.3l-2.8-2.5C14.4 41.2 4 30.6 4 19.3 4 10.7 10.4 4 18.5 4c4.5 0 9 2.3 11.9 5.9.4.5 1 .7 1.6.7s1.2-.3 1.6-.7C36.5 6.3 41.1 4 45.5 4m0-4C40.6 0 35.6 2.1 32 5.7 28.4 2.1 23.4 0 18.5 0 8.1 0 0 8.5 0 19.3c0 12.9 11 24.1 26.4 38.5l.1.1 2.8 2.5c.8.7 1.7 1 2.6 1 .9 0 1.9-.3 2.6-1l2.9-2.5.1-.1C53.1 43.4 64 32.2 64 19.3 64 8.5 55.9 0 45.5 0z"/></symbol><symbol id="icn-images" viewBox="0 0 68.2 55.2"><g fill="#010101"><path d="M58.2 43.2V2c0-1.1-.9-2-2-2H2C.9 0 0 .9 0 2v41.2c0 1.1.9 2 2 2h54.2c1.1 0 2-.9 2-2zm-4-2H4V4h50.2v37.2z"/><path d="M66.2 10c-1.1 0-2 .9-2 2v39.2H12c-1.1 0-2 .9-2 2s.9 2 2 2h54.2c1.1 0 2-.9 2-2V12c0-1.1-.9-2-2-2z"/><path d="M12 35.2c1 .6 2.2.2 2.7-.7l7-12.1 7 12.1c.4.6 1 1 1.7 1 .3 0 .7-.1 1-.3 1-.6 1.3-1.8.7-2.7L30 28.8l5.8-10L44.6 34c.4.6 1 1 1.7 1 .3 0 .7-.1 1-.3 1-.6 1.3-1.8.7-2.7L37.5 13.7c-.4-.6-1-1-1.7-1s-1.4.4-1.7 1l-6.4 11-4.3-7.4c-.4-.6-1-1-1.7-1s-1.4.4-1.7 1l-8.7 15.1c-.6 1-.3 2.2.7 2.8z"/></g></symbol><symbol id="icn-magnifying-glass" viewBox="0 0 64 64"><path d="M62.1 51.9L47 36.8s-.1 0-.1-.1c1.9-3.5 3-7.5 3-11.8C49.9 11.2 38.7 0 24.9 0 11.2 0 0 11.2 0 24.9s11.2 24.9 24.9 24.9c4.3 0 8.3-1.1 11.8-3 0 0 0 .1.1.1L51.9 62c1.3 1.3 3 1.9 4.7 1.9 1.9 0 3.8-.7 5.2-2.2 2.8-2.7 2.9-7.2.3-9.8zM4 24.9C4 13.4 13.4 4 24.9 4s20.9 9.4 20.9 20.9-9.4 20.9-20.9 20.9S4 36.5 4 24.9zM59 59c-1.2 1.2-3.2 1.4-4.3.3L40.1 44.7c1.7-1.3 3.2-2.8 4.5-4.5l14.6 14.6c1.1 1 1 2.9-.2 4.2z"/></symbol><symbol id="icn-pin" viewBox="0 0 52.8 67"><path d="M26.4 4c12.4 0 22.4 10.1 22.4 22.4 0 11-14.7 27-22.5 35C12.3 47.5 4 34.6 4 26.4 4 14.1 14.1 4 26.4 4m0-4C11.8 0 0 11.9 0 26.4 0 36.3 9.6 51.1 26.4 67c7.6-7.6 26.5-26.6 26.5-40.6C52.8 11.9 41 0 26.4 0"/><path d="M26.4 20.9c3 0 5.5 2.5 5.5 5.5s-2.5 5.5-5.5 5.5-5.5-2.5-5.5-5.5 2.5-5.5 5.5-5.5m0-4c-5.3 0-9.5 4.3-9.5 9.5s4.3 9.5 9.5 9.5c5.3 0 9.5-4.3 9.5-9.5s-4.2-9.5-9.5-9.5"/></symbol><symbol id="icn-play" viewBox="0 0 150 150"><path opacity=".5" d="M75 0C33.6 0 0 33.6 0 75s33.6 75 75 75 75-33.6 75-75S116.4 0 75 0"/><path fill="#FFF" d="M57.5 111.9l47.3-36.2-46-37.6z"/></symbol><symbol id="icn-plus" viewBox="0 0 41.4 41.4"><path d="M20.7 2v37.4M2 20.7h37.4" fill="none" stroke="#010101" stroke-width="4" stroke-linecap="round" stroke-linejoin="round" stroke-miterlimit="10"/></symbol><symbol id="icn-share" viewBox="0 0 63 73.1"><path fill="#010101" d="M51.7 50.6c-3.6 0-6.8 1.7-8.9 4.4l-22-12.5c1.1-1.7 1.7-3.7 1.7-5.9 0-2.3-.7-4.4-1.8-6.1l21.7-12.8c2 3 5.4 4.9 9.3 4.9 6.2 0 11.3-5.1 11.3-11.3S57.9 0 51.7 0 40.5 5.1 40.5 11.3c0 .9.1 1.8.3 2.7L17.9 27.5c-1.9-1.4-4.1-2.2-6.6-2.2-6.2 0-11.3 5-11.3 11.3s5.1 11.3 11.3 11.3c2.6 0 5-.9 6.9-2.3l22.8 13c-.3 1.1-.5 2.2-.5 3.4 0 6.2 5.1 11.3 11.3 11.3S63 68.1 63 61.8s-5.1-11.2-11.3-11.2zm0-46.6c4 0 7.3 3.3 7.3 7.3s-3.3 7.3-7.3 7.3-7.3-3.3-7.3-7.3S47.7 4 51.7 4zM11.3 43.8c-4 0-7.3-3.3-7.3-7.3s3.3-7.3 7.3-7.3 7.3 3.3 7.3 7.3-3.3 7.3-7.3 7.3zm40.4 25.3c-4 0-7.3-3.3-7.3-7.3s3.3-7.3 7.3-7.3 7.3 3.3 7.3 7.3-3.3 7.3-7.3 7.3z"/></symbol><symbol id="icn-star-fill" viewBox="0 0 72.3 69.3"><path fill="#677C98" d="M68.7 29.2L55.6 42c-1 1-1.5 2.4-1.2 3.8l3.1 18.1c.2 1.2-.6 2.3-1.7 2.5-.5.1-.9 0-1.3-.2l-16.2-8.5c-1.2-.7-2.7-.7-4 0L18 66.1c-1 .6-2.3.2-2.9-.9-.2-.4-.3-.9-.2-1.4L18 45.7c.2-1.4-.2-2.8-1.2-3.8L3.6 29.2c-.8-.8-.9-2.2 0-3 .3-.3.8-.6 1.2-.6L22.9 23c1.4-.2 2.6-1.1 3.2-2.3l8.1-16.4c.5-1.1 1.8-1.5 2.8-1 .4.2.8.5 1 1l8.1 16.4c.6 1.3 1.8 2.1 3.2 2.3l18.1 2.6c1.2.2 2 1.2 1.8 2.4 0 .4-.3.9-.5 1.2z"/><path fill="#010101" d="M17 69.3c-1.8 0-3.6-1-4.5-2.7-.5-1-.7-2.2-.5-3.3l3-18.1c.1-.4-.1-.8-.4-1.1L1.5 31.3c-2-2-2.1-5.2-.1-7.3.8-.8 1.8-1.3 2.9-1.5L22.5 20c.4-.1.8-.3.9-.7l8.1-16.4C32.7.4 35.8-.7 38.4.6c1 .5 1.8 1.3 2.3 2.3l8.1 16.4c.2.4.5.6.9.7l18.1 2.6c2.8.4 4.7 3 4.3 5.8-.1.8-.4 1.5-.8 2.1-.1.3-.3.6-.6.8l-13 12.8c-.3.3-.4.7-.4 1.1l3.1 18.1c.2 1.4-.1 2.7-.9 3.8-.8 1.1-2 1.9-3.3 2.1-1.1.2-2.3 0-3.2-.5l-16.2-8.5c-.4-.2-.8-.2-1.2 0l-16.2 8.5c-.8.4-1.6.6-2.4.6zm-10-41l11.9 11.5c1.7 1.7 2.5 4.1 2.1 6.4l-2.8 16.4 14.7-7.7c2.1-1.1 4.6-1.1 6.7 0l14.6 7.7-2.8-16.3c-.4-2.4.4-4.8 2.1-6.4l11.9-11.5L49 26c-2.4-.4-4.4-1.8-5.5-4L36.1 7.1l-7.3 14.8c-1.1 2.1-3.1 3.6-5.4 4L7 28.3z"/></symbol><symbol id="icn-close" viewBox="0 0 30 29.9"><path d="M25.6 4.4C22.8 1.6 19 0 15 0S7.2 1.6 4.4 4.4c-5.8 5.8-5.8 15.3 0 21.2C7.2 28.4 11 30 15 30s7.8-1.6 10.6-4.4c5.8-5.9 5.8-15.4 0-21.2zm-3.9 15.1c.3.3.4.7.4 1.1s-.2.8-.4 1.1-.7.4-1.1.4-.8-.2-1.1-.4L15 17.1l-4.6 4.6c-.6.6-1.6.6-2.1 0-.3-.3-.4-.7-.4-1.1s.2-.8.4-1.1l4.6-4.6-4.6-4.6c-.3-.2-.4-.6-.4-1s.1-.8.4-1c.6-.6 1.6-.6 2.1 0l4.6 4.6 4.6-4.6c.6-.6 1.6-.6 2.1 0 .3.3.4.7.4 1.1s-.2.8-.4 1.1L17.1 15l4.6 4.5z"/></symbol><symbol id="icn-location" viewBox="0 0 24 24"><path d="M0 0h24v24H0z" fill="none"/><path d="M12 8c-2.21 0-4 1.79-4 4s1.79 4 4 4 4-1.79 4-4-1.79-4-4-4zm8.94 3A8.994 8.994 0 0 0 13 3.06V1h-2v2.06A8.994 8.994 0 0 0 3.06 11H1v2h2.06A8.994 8.994 0 0 0 11 20.94V23h2v-2.06A8.994 8.994 0 0 0 20.94 13H23v-2h-2.06zM12 19c-3.87 0-7-3.13-7-7s3.13-7 7-7 7 3.13 7 7-3.13 7-7 7z"/></symbol></svg>