<svg xmlns="http://www.w3.org/2000/svg" width="1027.6" height="194.6" viewBox="0 0 1027.6 194.6"><path d="M876.6 1.6H870l-48.7 95.1-49.2-95.1H765l-13.7 104.2c-1.4 10.4-3.2 15-5.4 19.4h13.6c-1.1-3.9-.7-11.2.5-20.3l8.5-63.7 43.6 84.1h5.1l43.7-84 8.1 62.4c.9 7 .9 15.5-.3 21.6H896c-2.9-6.3-3.9-9.1-5.4-19.5l-14-104.2zM256.7 0c-39.8 0-70.9 27.9-70.9 64 0 36 31.2 63.9 70.9 63.9 39.8 0 70.9-27.9 70.9-63.9.1-36.1-31.1-64-70.9-64m2 118.4c-27.5 0-49.3-23.4-50.5-54.4-1.1-31.1 17-54.5 46.5-54.5 27.5 0 49.3 23.4 50.5 54.5 1.1 31-19 54.4-46.5 54.4m740.8 6.8h28.1c-4.9-4.7-10-11.6-13.4-20.2L970 1.6h-5.3l-44.9 106.3c-3.4 7.9-6.6 12.8-10.4 17.3h12.7l17.1-41.3h43.1l17.2 41.3zm-56.7-49.7l18.1-43.6 18 43.6h-36.1zM65.3 53.2c9.1-4.3 17.1-11.6 17.1-22.4 0-12.4-5.8-20.1-16.6-24.7-6.7-2.8-18-4.1-29-4.1H.1c2.2 3.6 3.4 8.8 3.4 16v90.5c0 9-1.3 13.2-3.5 16.7h39.7c12.3 0 26.8-2.4 33.7-5.8 11.3-5.6 18.3-15.8 18.3-31 0-20.9-15.6-30.5-26.4-35.2m-41-43c1.9-.1 4.9-.1 8.8-.1 3.4 0 9 .4 11.9 1.1C54.6 13.6 61.3 20 61.3 31c0 10.3-6.6 16.1-14.9 17.4-2 .3-7.6.8-9.6.8-4.6 0-9 0-12.4-.1V10.2zm24.7 106c-2.4.5-8.5 1-10.3 1-1.8 0-12 0-14.3-.1V57.3c1.7 0 8.8-.1 11-.1 2.3 0 8.3.4 11.6 1.1 14.3 3.1 23 13 22.8 30.7-.1 13.6-7 24.2-20.8 27.2m487.3.6l.1-59.2h43.7l3-8.4h-46.7V10.5h33.9c7.5 0 13.7.8 21.3 4.9L585.5 2h-73.3c2.1 3.6 3.2 8.8 3.2 16v90.5c0 9-1.2 13.2-3.3 16.7h80.5l6.3-13.4c-7.6 4-15.2 4.9-23.7 4.9h-38.9zM431.7 4.4C425.2 2.9 413.1 2 409.2 2h-49.9c2.1 3.6 3.3 8.8 3.3 16v90.5c0 9-1.2 13.2-3.4 16.7H406c5 0 15.1-.6 20.9-1.4 35-4.9 55.5-28.2 55.5-59.3-.1-30.4-20.9-52.7-50.7-60.1m-13 111.7c-3.5.5-11 .8-14.8.8-10.1 0-16.6 0-20.5-.3V11c3.9-.1 12.3-.4 17-.4 6.1 0 18.3 1.1 25 3.5 20.2 7.2 33.8 25.1 33.8 50 .1 28.1-12.3 48-40.5 52M154.4 2h-27.2c2.2 3.6 3.3 8.8 3.3 16v90.5c0 9-1.2 13.2-3.3 16.7h27.2c-2.2-3.6-3.3-8.8-3.3-16V18.7c0-9 1.2-13.2 3.3-16.7m521.4 65.8c16.3-1.6 36.2-10.6 36.2-31.5 0-20.2-13.2-28.5-28-31.9C672.6 1.7 659.2 2 651.2 2h-25.5c2.2 3.6 3.3 8.8 3.3 16v90.5c0 9-1.2 13.2-3.4 16.7h27.8c-2.8-4.8-3.5-10.4-3.5-16.6V10.4c3.5-.1 13.1-.4 20.2 1.2 16.1 3.6 20.7 13.9 20.7 25.1 0 13.9-8.8 29.9-33.8 24.5l-2.8 1.8c21.1 32.4 39.5 51.6 53.2 62.2h31.5c-22-14.5-45.7-35.2-63.1-57.4M6.5 182.7h13.7v4.2H.1v-33.2h6.4zm29 4.2h-5.7l15-33.3h3.8L62.2 187h-6.6l-3.4-8.2H39.1l-3.6 8.1zm10.4-24.1l-5.1 12h10l-4.9-12zm29.7-9h10.7c7.5 0 12.1 3.3 12.1 7.7 0 4.2-3.4 6.6-6 7.5 5.3.6 9.2 4.1 9.2 8.3 0 5.7-6.5 9.8-13.3 9.8H75.6v-33.3zm19.2 23.6c0-3.1-2.6-5.4-7.7-5.4h-5.2v11.1h4.9c5 0 8-2.3 8-5.7m-9.7-9.3c4.1 0 6.9-2.2 6.9-5.6.1-2.8-2.2-4.9-7-5h-3.1v10.6h3.2zm66.9 2.3c0 10.5-8.4 17.2-18.7 17.2-10.8 0-18.7-6.7-18.7-17.3 0-9.9 7.8-17.3 18.7-17.3 11.6.2 18.7 7.3 18.7 17.4m-30.6 0c0 7.5 4.6 13 11.9 13.1 7.3 0 11.9-5.6 11.9-13 0-7.5-4.6-13.1-11.9-13.1-7.3-.1-11.9 5.4-11.9 13m66.4 17.2l-10.3-15.5h-3.8V187h-6.4v-33.2h10.3c8.9 0 13.2 4.4 13.2 8.6 0 4.6-4.2 7.7-7.1 8.5l11.3 16.2-7.2.5zM177 168.2c5.1 0 7.5-2.8 7.5-5.3 0-2.7-2.2-5.2-7.4-5.2h-3.4v10.5h3.3zm32.2 18.9h-5.7l15-33.3h3.8l13.6 33.3h-6.6l-3.4-8.2h-13.1l-3.6 8.2zm10.4-24.1l-5.1 12h9.9l-4.8-12zm21.5-9.1H271v4.3h-11.8v28.9h-6.3v-28.9h-11.8zm75.6 16.7c0 10.5-8.4 17.2-18.7 17.2-10.8 0-18.7-6.7-18.7-17.2 0-9.9 7.8-17.3 18.7-17.3 11.5 0 18.7 7.2 18.7 17.3m-30.6-.1c0 7.5 4.6 13 11.9 13 7.3 0 11.9-5.6 11.9-13 0-7.5-4.6-13.1-11.9-13.1-7.4.1-11.9 5.5-11.9 13.1m45.8 16.7V154h6.3v33.2zm43.6.5l-10.3-15.5h-3.8v14.9H355v-33.2h10.3c8.9 0 13.2 4.4 13.2 8.6 0 4.6-4.3 7.7-7.1 8.5l11.3 16.2-7.2.5zm-10.8-19.3c5.1 0 7.5-2.8 7.5-5.3 0-2.7-2.2-5.2-7.4-5.2h-3.4v10.5h3.3zm53.6 18.8H396l.1-33.2h21.6v4.3l-15.3-.1v9.8h11.2v4.2h-11.2V183h15.9zm37-33.2h11.4c11.9 0 20 6.3 20 16.5 0 9.6-9.4 16.7-20 16.7h-11.4V154zm11.5 29c6.4 0 13-5 13-12.4 0-8.6-6.4-12.3-13.1-12.3h-5.1v24.8l5.2-.1zm57.5 4.3H502v-33.2h21.6v4.2h-15.2l-.1 9.8h11.2v4.2h-11.2v10.8h16zm34.7.6l-10.3-15.5h-3.8v14.9h-6.3v-33.2h10.3c8.9 0 13.2 4.4 13.2 8.6 0 4.6-4.3 7.7-7.1 8.5l11.3 16.2-7.3.5zm-10.8-19.4c5.1 0 7.5-2.8 7.5-5.3 0-2.7-2.2-5.2-7.4-5.2h-3.4v10.5h3.3zm67.9 18.9h-6.2l-.5-22.4-10.5 22.7h-4l-10.2-22.3-.9 22h-5.3l1.5-33.3h6l11.6 25.9 11.9-25.8h5.8zm18.3 0h-5.7l15-33.3h3.8l13.6 33.3h-6.6l-3.4-8.2H638l-3.6 8.2zm10.5-24.1l-5.2 12h9.9l-4.7-12zm21.4-9.1l29.9.1v4.2h-11.7v28.9h-6.4v-28.9h-11.8zm75.6 16.7c0 10.5-8.4 17.2-18.7 17.2-10.8 0-18.7-6.7-18.7-17.2 0-9.9 7.8-17.3 18.7-17.3 11.6 0 18.7 7.2 18.7 17.3m-30.6 0c0 7.5 4.6 13.1 11.9 13.1 7.3 0 11.9-5.6 11.9-13.1 0-7.4-4.6-13.1-11.9-13.1-7.3 0-11.9 5.5-11.9 13.1m52.2 12.4h13.7v4.2h-20v-33.2h6.3zm60.7-12.3c0 10.5-8.4 17.2-18.7 17.2-10.8 0-18.7-6.7-18.7-17.2 0-9.9 7.8-17.3 18.7-17.3 11.6 0 18.7 7.2 18.7 17.3m-30.6 0c0 7.5 4.6 13 11.9 13.1 7.3 0 11.9-5.6 11.9-13 0-7.5-4.6-13.1-11.9-13.1-7.3-.1-11.9 5.3-11.9 13m63.9 17.2c-11.5 0-19.5-7.6-19.5-17.2 0-9.7 8.1-17.3 19.4-17.3 7.1 0 10.6 1.6 12.3 2.3l-1.9 4.1c-1.2-.5-4.7-1.9-10.1-1.9-7.1 0-12.9 5.8-12.9 12.8 0 7.8 6.2 12.8 13.3 12.8 3.8 0 5.3-.4 6.6-.8v-9.7h6.3v12.4c-1.8.8-6.1 2.5-13.5 2.5m28.3-.6l.1-33.2h6.2v33.2zm58.6 2.3l-2.1 4.7-21.7-6.9c-8.5-3-13.2-8-13.2-16.6 0-9.9 7.8-17.3 18.7-17.3 11.6 0 18.7 7.2 18.7 17.3 0 7.9-5.5 14.3-12.4 15.9l12 2.9zm-30.1-18.8c0 7.5 4.6 13.1 11.9 13.1 7.3 0 11.9-5.6 11.9-13.1s-4.6-13.1-11.9-13.1c-7.3 0-11.9 5.6-11.9 13.1m74.6 5.5c0 5.3-4.2 11.7-14.9 11.7-9.7 0-14.9-4.6-14.9-11.5v-22.4h6.4v21.8c0 5.2 2.7 7.8 9 7.8 5.9 0 8.7-3.8 8.7-7.8v-21.7h5.8l-.1 22.1zm38.7 11.1h-22.3v-33.2h21.7v4.2h-15.3v9.8h11.1v4.2h-11.1v10.8h15.9z" fill="#3f3e42"/></svg>