<svg version="1" xmlns="http://www.w3.org/2000/svg" width="1365.333" height="1365.333" viewBox="0 0 1024.000000 1024.000000" preserveAspectRatio="xMidYMid meet"><path d="M283 202.4c0 .3 1.1 2.6 2.5 5 2.8 5 9 23 9.9 28.6.6 3.4.9 5.3 2.1 11.5 1.7 9.1 2 41.9 2 265 0 216.5-.3 255.1-1.9 263-.2 1.1-.7 4-1.1 6.5-.7 4.8-4 18.2-5.3 21.5-.5 1.1-2.7 5.7-5 10.3l-4.1 8.3 117.2-.4c64.5-.2 118.8-.7 120.7-.9 1.9-.3 7.6-.9 12.5-1.2 5-.4 10-.9 11.1-1.1 1.2-.2 4.8-.7 8-1 3.3-.4 6.6-.9 7.4-1 .8-.2 5.1-.8 9.5-1.4 4.4-.7 10-1.6 12.5-2.1s5.6-1.2 7-1.4c16.1-2.9 40.7-9.5 51.5-13.9 7.5-3 25.7-12.8 32.8-17.6 26-17.8 44.7-41.1 57.1-71.2 1.9-4.7 3.7-9.6 4-11 .3-1.3.9-3.9 1.5-5.8 1.8-6 5.1-22.9 5.9-30.3.4-4 .6-16.5.6-27.8-.1-17.8-.5-22.1-2.8-33-3.5-17.3-6.6-26.5-13.4-41-14.3-30.1-40.9-58.2-75.4-79.6-8.7-5.4-31.4-17.1-37.6-19.5-2.6-1-2.6-1.1 5-4.9 37-18.8 64.8-48.4 73.7-78.5 3.3-11.1 4.3-17.5 4.5-28.9.7-38.3-10.4-69.5-33.2-93-14.7-15.2-34.7-27.6-58.2-36-7.1-2.6-26.4-7.7-34-9-1.9-.3-4.6-.8-6-1.1-1.3-.3-4-.7-6-1-2-.3-4.6-.7-5.9-1-1.2-.2-4.9-.7-8.2-1-3.3-.4-6.8-.8-7.8-1-1-.2-5.5-.6-10.2-1-4.6-.3-10.4-.9-12.9-1.2-5.7-.7-230-1.6-230-.9zm188.5 41c30.4 2.3 44.5 5.6 63 14.7 25.8 12.7 42.1 31.4 49.9 57.5 3.1 10.6 3.7 14.7 4.1 28.9 1 38.7-16.3 68.1-48.9 82.9-12 5.5-26.6 8.3-53.6 10.5-11.6.9-80.6.8-81.6-.2-.3-.3-.7-44.2-.8-97.6l-.1-97 6.5-.3c10-.5 53.6-.1 61.5.6zm7 237c28.9 2.1 40 4 57.8 10 34.8 11.7 59.6 31.3 75.2 59.7 5.2 9.6 11.4 24.5 13 31.5.2 1 1.1 4.8 2 8.3 4.2 17.3 6 46.8 4.1 66.8-5.6 58.4-37.2 99.4-89.6 116.2-7.3 2.3-13.3 3.7-20 4.6-2.5.3-5.6.8-7 1-1.4.3-5.4.7-9 1-3.6.3-10.5.9-15.3 1.3-9.1.8-84.6.7-85.4-.1-.3-.4-.6-263.2-.3-296.4v-4.2l7.3-.3c13.1-.5 57-.1 67.2.6z" fill="#000" stroke="none"/></svg>